<?xml version="1.0" encoding="UTF-8"?>
<svg width="306px" height="348px" viewBox="0 0 306 348" version="1.1" xmlns="http://www.w3.org/2000/svg" xmlns:xlink="http://www.w3.org/1999/xlink">
    <!-- Generator: Sketch 42 (36781) - http://www.bohemiancoding.com/sketch -->
    <title>Group 9</title>
    <desc>Created with Sketch.</desc>
    <defs>
        <rect id="path-1" x="0" y="0" width="306" height="348"></rect>
        <mask id="mask-2" maskContentUnits="userSpaceOnUse" maskUnits="objectBoundingBox" x="0" y="0" width="306" height="348" fill="white">
            <use xlink:href="#path-1"></use>
        </mask>
        <mask id="mask-4" maskContentUnits="userSpaceOnUse" maskUnits="objectBoundingBox" x="0" y="0" width="306" height="348" fill="white">
            <use xlink:href="#path-1"></use>
        </mask>
        <polygon id="path-5" points="0.000190744359 563.733807 824.969355 563.733807 824.969355 0.000190450611 0.000190744359 0.000190450611 0.000190744359 563.733807"></polygon>
    </defs>
    <g id="12maio" stroke="none" stroke-width="1" fill="none" fill-rule="evenodd">
        <g id="landingpage-copy-3" transform="translate(-809.000000, -3602.000000)">
            <g id="Group-9" transform="translate(809.000000, 3602.000000)">
                <mask id="mask-3" fill="white">
                    <use xlink:href="#path-1"></use>
                </mask>
                <g id="Rectangle-15" stroke="#BDC0C2" mask="url(#mask-2)" stroke-width="2" fill="#FFFFFF">
                    <use mask="url(#mask-4)" xlink:href="#path-1"></use>
                </g>
                <g id="map" mask="url(#mask-3)">
                    <g transform="translate(-232.615385, -78.870775)">
                        <g id="Group-3" stroke="none" fill-rule="evenodd" transform="translate(0.123648, 0.000000)">
                            <mask id="mask-6" fill="white">
                                <use xlink:href="#path-5"></use>
                            </mask>
                            <g id="Clip-2"></g>
                            <path d="M496.207336,351.553925 C499.092345,355.780024 501.188625,353.662213 502.962548,352.220502 C503.406982,351.859598 502.744146,350.139829 502.589643,349.044738 C500.572521,349.837965 498.555399,350.631191 496.207336,351.553925 L496.207336,351.553925 Z M679.985712,432.270702 C680.139261,432.982988 680.29281,433.695273 680.44636,434.407558 C688.538689,432.634463 696.631972,430.859463 704.726209,429.085416 L704.555493,428.193155 C696.365884,429.55202 688.176275,430.910885 679.985712,432.270702 L679.985712,432.270702 Z M23.5389984,283.574484 C23.9014127,283.682088 24.2657344,283.789693 24.6300562,283.897297 C26.6881878,280.146373 28.3476637,276.091679 30.9150828,272.729274 C33.6846909,269.100237 31.9193519,268.286061 28.7730237,267.540447 C27.6094831,267.265246 26.4774153,266.860538 24.973396,266.406313 C24.4717384,272.41503 24.0053684,277.994281 23.5389984,283.574484 L23.5389984,283.574484 Z M584.093754,145.41685 C583.072318,145.070229 582.700366,144.805503 582.513437,144.900728 C569.495134,151.505556 556.471109,158.101812 543.526243,164.848525 C542.596365,165.333222 542.248256,166.932055 541.629291,168.012862 C541.99552,168.327106 542.360795,168.642302 542.725117,168.956545 C556.362385,161.196635 570.000607,153.436725 584.093754,145.41685 L584.093754,145.41685 Z M265.645092,501.836597 C269.472377,501.826122 272.709309,498.618934 272.759856,494.786115 C272.810404,490.974246 269.447581,487.563276 265.65749,487.581369 C262.618932,487.595652 258.406343,491.854128 258.463567,494.853725 C258.536049,498.657976 261.815899,501.847072 265.645092,501.836597 L265.645092,501.836597 Z M599.119641,265.964468 C593.673889,262.505885 589.591006,264.421818 586.72698,266.803403 C581.875397,270.840004 579.122956,276.384973 580.249301,284.843837 C586.950151,278.139976 592.791697,272.295999 599.119641,265.964468 L599.119641,265.964468 Z M587.911502,452.307059 C587.994476,452.826989 588.07745,453.345967 588.160423,453.865897 C616.556536,447.890509 644.953603,441.914169 673.350669,435.937829 C673.192352,435.19031 673.034987,434.442792 672.87667,433.696225 C644.555901,439.899202 616.234178,446.10313 587.911502,452.307059 L587.911502,452.307059 Z M487.045885,183.947865 C488.984801,184.995343 490.28377,186.302787 491.10874,186.052344 C506.133673,181.487243 521.102336,176.734548 536.082445,172.020895 C536.142529,171.480016 536.203567,170.940088 536.262698,170.399208 C535.242216,170.082108 534.137806,169.345064 533.215557,169.526945 C530.346762,170.090678 527.514208,170.903903 524.724572,171.795211 C512.647593,175.652789 500.591595,179.572262 487.045885,183.947865 L487.045885,183.947865 Z M353.686012,403.740249 C354.016953,398.215276 350.474831,399.630324 348.363291,400.070265 C336.526649,402.532792 324.749139,405.275281 313.008824,407.909213 C312.543407,410.722168 312.759902,412.271484 316.269598,411.459212 C323.825936,409.708019 331.472878,408.346297 339.077855,406.796981 C344.020042,405.789497 348.951737,404.732496 353.686012,403.740249 L353.686012,403.740249 Z M414.484823,231.419584 C418.449444,237.745401 422.155607,243.659845 426.020088,249.825683 C428.632332,248.134482 430.906005,246.663251 433.21878,245.166309 C430.274641,239.316619 427.565117,233.933532 424.778342,228.397133 C421.516614,229.355099 418.457074,230.253074 414.484823,231.419584 L414.484823,231.419584 Z M359.936705,402.109039 C362.063504,401.755753 363.882252,401.49674 365.683832,401.147264 C374.20629,399.492248 382.734471,397.861991 391.234993,396.095561 C392.788606,395.772747 395.095659,395.179494 395.484777,394.130111 C395.966407,392.833142 394.807635,390.930541 394.364154,389.316472 C383.382048,392.026584 373.211558,394.727174 362.938067,396.952589 C359.979622,397.593455 359.168005,398.671406 359.936705,402.109039 L359.936705,402.109039 Z M437.232042,376.959084 C426.37678,380.246261 416.09852,383.641043 405.650498,386.397816 C400.812267,387.67574 400.613893,389.629763 403.084986,393.191189 C415.060871,389.25648 426.989069,385.337958 439.171912,381.335639 C438.345989,379.473032 437.854822,378.364609 437.232042,376.959084 L437.232042,376.959084 Z M445.132673,379.643485 C461.052197,372.553009 476.788607,365.544426 492.554582,358.52156 C491.176454,354.73445 489.83266,354.304984 487.261426,355.652422 C483.436048,357.657867 479.360794,359.191946 475.383775,360.906954 C464.754545,365.490148 454.122455,370.062867 443.484642,374.644157 C444.015865,376.257273 444.445039,377.558051 445.132673,379.643485 L445.132673,379.643485 Z M805.894156,410.768828 C805.851239,405.741885 801.906645,401.743374 797.09798,401.852883 C792.637423,401.953822 787.709543,406.564631 787.788702,410.56219 C787.886935,415.521523 792.41616,419.961879 797.355485,419.941882 C802.187993,419.921885 805.938981,415.89195 805.894156,410.768828 L805.894156,410.768828 Z M427.157878,251.120747 C433.977943,260.94419 440.580559,270.455293 447.422559,280.31016 C449.342401,279.338862 451.19739,278.400893 453.200206,277.387696 C447.941384,268.923118 442.757906,260.844203 437.851961,252.600549 C433.867311,245.904305 434.409025,246.487084 427.157878,251.120747 L427.157878,251.120747 Z M369.090527,315.097869 C369.067637,320.966604 372.656492,324.746097 378.226228,324.717529 C383.01868,324.692771 388.201204,320.088627 387.830206,315.592088 C387.373373,310.042357 383.900872,306.253342 378.139439,306.563777 C372.833885,306.851357 369.109601,310.09854 369.090527,315.097869 L369.090527,315.097869 Z M283.82589,240.310771 C290.687919,239.223298 297.281951,238.101544 303.898873,237.144529 C319.631468,234.86674 335.38123,232.705126 351.101426,230.342586 C352.096158,230.193082 352.892515,228.719947 353.782338,227.861967 C352.752318,227.44488 351.666983,226.56595 350.70277,226.682125 C341.107375,227.840065 331.54536,229.273206 321.948058,230.4121 C310.148612,231.811912 298.320554,232.970804 286.515386,234.333478 C285.082896,234.49917 283.720981,235.28097 282.336177,235.774237 C282.829251,237.274988 283.21074,238.437689 283.82589,240.310771 L283.82589,240.310771 Z M565.774665,441.859891 C560.612169,441.657061 555.145436,447.187746 555.070092,452.688912 C555.006193,457.316862 560.648411,462.758988 565.531466,462.779938 C570.472699,462.80184 575.673344,457.812986 576.032897,452.707005 C576.363839,448.009541 570.734019,442.056055 565.774665,441.859891 L565.774665,441.859891 Z M543.328823,454.482957 L543.675024,452.528934 C542.221552,452.142319 540.773802,451.440509 539.314608,451.41575 C516.665623,451.03104 494.01473,450.471115 471.365745,450.523489 C459.579651,450.550152 447.788788,451.610962 436.013185,452.387048 C433.207336,452.571785 430.450126,453.487853 427.67098,454.067775 C427.74251,454.205851 427.813085,454.34488 427.884614,454.482957 L543.328823,454.482957 Z M289.150519,277.141062 C288.140528,277.298184 287.130536,277.456258 286.121499,277.614332 C288.982664,305.272522 291.844783,332.930712 294.718347,360.71079 C297.350619,360.179433 298.794554,359.888043 300.468336,359.549993 C295.004464,332.17748 294.03739,304.365025 289.150519,277.141062 L289.150519,277.141062 Z M334.288264,54.4138344 C337.347804,51.6903906 339.961955,49.2611931 342.68197,46.957693 C352.595908,38.5645346 362.655766,30.3389727 372.433321,21.7905971 C377.264876,17.5664025 376.893878,14.9781787 371.145797,10.0331286 C368.973219,12.4556604 366.85691,15.0257914 364.524107,17.3797609 C356.366924,25.6091318 348.523516,34.2165471 339.756905,41.7469643 C335.741736,45.1960248 332.73942,47.9680335 334.288264,54.4138344 L334.288264,54.4138344 Z M451.170686,285.779902 C463.999197,304.415494 476.683697,322.789217 489.302391,341.210552 C492.865495,346.41271 492.773938,346.475559 498.788108,342.343733 C484.797009,322.454976 470.808771,302.57098 456.869173,282.755546 C454.639372,283.939197 452.999924,284.808604 451.170686,285.779902 L451.170686,285.779902 Z M481.940612,185.481945 C440.991613,198.436395 400.273414,211.318474 359.465566,224.229121 C360.497493,227.422978 361.768804,227.95624 364.814038,226.944947 C382.917585,220.938135 401.137486,215.285561 419.304933,209.47396 C439.098475,203.141477 458.889156,196.799472 478.645503,190.352719 C480.486186,189.752799 483.909094,189.843263 481.940612,185.481945 L481.940612,185.481945 Z M356.203838,235.829468 C349.599314,236.907418 343.191257,238.060597 336.748867,238.98333 C320.701544,241.281117 304.637054,243.460824 288.584008,245.72052 C286.351346,246.034764 284.95319,246.965115 285.112461,249.707604 C285.603628,258.198844 285.852549,266.704369 286.245483,275.202275 C286.259788,275.530802 286.786243,275.836475 287.885884,277.042028 C288.36656,275.074673 288.822439,273.836744 288.944515,272.567391 C289.154334,270.371495 288.319827,267.50807 289.424237,266.0835 C291.685512,263.166749 290.113778,260.553766 289.402302,258.267407 C287.976488,253.684213 288.500081,251.621633 292.956823,250.517019 C295.057872,249.996137 297.240941,249.792354 299.394445,249.494299 C308.194436,248.274463 316.966769,246.598498 325.810631,245.992865 C336.095567,245.287245 346.760084,241.758195 356.531918,248.42111 C356.913407,248.681075 357.68306,248.37445 358.616754,248.30684 C357.840424,244.290236 357.113688,240.531693 356.203838,235.829468 L356.203838,235.829468 Z M800.238586,193.620851 C805.276144,189.06432 806.784932,184.253538 804.928036,178.440033 C799.14276,160.32818 787.840203,145.050232 779.125093,128.443891 C778.731206,127.692564 777.88144,127.06979 777.098434,126.665082 C776.364068,126.284181 774.98594,125.858524 774.690286,126.181338 C774.049385,126.883148 773.453309,128.164881 773.661221,129.006673 C774.47093,132.289089 775.320697,135.615309 776.678796,138.695848 C778.542369,142.920994 781.185132,146.810948 782.959054,151.066567 C788.792971,165.059926 794.385595,179.153271 800.238586,193.620851 L800.238586,193.620851 Z M256.685829,496.634438 C244.721389,509.427006 232.569066,522.41669 220.2136,535.625392 C222.774343,536.394812 225.090933,537.131856 227.430413,537.783197 C229.959683,538.487865 232.533778,539.039219 235.047789,539.790547 C238.886519,540.937059 248.372236,536.331011 249.901052,532.461055 C253.705449,522.828063 257.485048,513.185549 261.164507,503.829662 C259.612801,501.336664 258.179357,499.034116 256.685829,496.634438 L256.685829,496.634438 Z M605.211062,129.929406 C621.360433,124.356821 636.439728,119.152758 651.577201,113.928698 C646.461437,104.102399 641.696643,94.9493423 636.707724,85.3658676 C626.169098,100.277198 616.012915,114.644792 605.211062,129.929406 L605.211062,129.929406 Z M482.773211,197.648882 C482.506169,197.090861 482.239127,196.532841 481.972085,195.974821 C442.0903,208.840712 402.207562,221.707555 362.343899,234.567733 C363.228952,238.90715 363.993837,242.659027 364.880798,247.00511 C366.61848,245.801462 368.073859,244.721607 369.599814,243.751261 C374.136669,240.868791 378.371193,237.113105 383.315287,235.345723 C397.461843,230.288307 412.030897,226.411685 426.186989,221.378076 C440.935343,216.134018 455.442406,210.197672 469.954236,204.314653 C474.39858,202.513943 478.509121,199.894294 482.773211,197.648882 L482.773211,197.648882 Z M295.375461,366.8014 C295.840878,369.977164 296.310109,372.571102 296.590503,375.185036 C297.603355,384.655193 298.458844,394.144395 299.548948,403.605981 C301.029124,416.450922 302.504532,429.300625 304.30802,442.102715 C305.211194,448.510426 306.279363,454.999078 308.298392,461.114447 C310.172455,466.793685 314.617752,468.477268 320.407797,467.525967 C325.172591,466.742263 330.007961,466.397547 334.770848,465.607177 C338.471288,464.993926 342.108783,463.994061 345.77489,463.1656 C345.667119,462.725659 345.561256,462.283814 345.454439,461.842921 C341.333407,461.842921 337.212375,461.84673 333.091344,461.841969 C323.839288,461.831494 318.688237,457.741567 316.648226,448.718969 C315.042159,441.62278 312.976397,434.578011 312.10088,427.390405 C311.517203,422.601525 308.610259,419.079141 307.361837,414.891132 C305.782474,409.591844 305.882614,403.801193 305.18449,398.232417 C303.870261,387.76049 302.503578,377.295229 301.155969,366.8014 L295.375461,366.8014 Z M217.134986,534.91025 C219.593681,532.789582 222.441494,530.758427 224.774298,528.250192 C236.399213,515.747109 248.613528,503.815379 258.812629,489.967715 C262.968948,484.323711 263.524968,478.75684 264.121044,472.706224 C263.721435,472.431975 263.320872,472.157726 262.922216,471.883477 C241.712397,490.043895 220.503532,508.204313 198.824481,526.767534 C205.139073,529.575728 211.020676,532.191567 217.134986,534.91025 L217.134986,534.91025 Z M97.3456209,279.756901 C105.06886,284.363901 112.170273,288.557624 119.221138,292.836097 C121.13335,293.995941 122.433273,294.114973 124.531461,292.597081 C132.04202,287.166382 139.855863,282.153722 147.746003,276.855386 C140.582599,265.324554 133.281858,253.572799 125.695955,241.362058 C116.667071,255.674422 104.313512,266.434881 97.3456209,279.756901 L97.3456209,279.756901 Z M430.068637,113.116426 C437.48287,110.771979 444.356343,108.596081 451.283225,106.404947 C437.852914,71.756267 424.669618,37.7408357 411.50635,3.78063507 C410.58124,3.89109642 410.038572,3.80920266 409.66662,4.02250734 C401.023993,8.96660519 392.327958,13.8250003 383.883705,19.0881029 C383.002466,19.6366006 382.89565,23.0866135 383.718711,24.3673938 C385.645229,27.3688954 388.258427,29.9618805 390.763854,32.5567701 C397.68406,39.7281878 402.551856,48.0746858 406.332409,57.2858296 C413.978397,75.9128515 422.06405,94.3589454 430.068637,113.116426 L430.068637,113.116426 Z M437.521973,443.641556 C437.678383,444.236714 437.835747,444.831872 437.992158,445.427983 C438.882934,445.503211 439.775618,445.668903 440.662579,445.639383 C449.337632,445.345137 458.013639,444.709032 466.686786,444.761406 C490.138805,444.905196 513.58987,445.341328 537.040935,445.65081 C541.246848,445.706993 544.548633,445.039464 546.947243,440.491503 C548.765991,437.042442 552.664806,434.57325 555.936071,432.055493 C557.375238,430.948023 559.555446,430.800424 561.805275,430.089091 C559.729023,427.569429 557.848284,425.472568 556.170687,423.222394 C540.733746,402.508033 525.176636,381.878423 510.042025,360.944092 C506.877576,356.565632 505.168506,358.375865 502.243442,360.868864 C510.493135,371.416971 518.665577,381.632742 526.573838,392.047533 C533.627565,401.336762 540.480056,410.785017 547.172322,420.336115 C548.034486,421.565474 548.176591,424.565071 547.312519,425.47352 C545.386955,427.497058 543.697913,425.973453 542.250164,423.942297 C539.085715,419.499084 535.267966,415.473911 532.481191,410.821202 C530.357253,407.272155 528.50131,407.174073 525.324463,409.050964 C520.52152,411.88963 515.747189,414.953028 510.589461,416.976566 C501.068456,420.713207 491.223186,423.620436 481.612532,427.139963 C470.409162,431.244174 459.319285,435.656914 448.161693,439.88587 C444.646275,441.219024 441.069818,442.394105 437.521973,443.641556 L437.521973,443.641556 Z M811.669895,456.117976 C808.594143,450.88725 805.492639,446.211687 803.009148,441.228547 C800.290087,435.772137 797.44895,431.242269 790.320833,431.028964 C787.623708,430.948975 784.856961,427.550384 782.347719,427.813206 C771.213017,428.977811 760.109788,430.65092 749.087625,432.651604 C733.500949,435.479795 718.019183,438.896479 702.431554,441.730384 C699.27855,442.303641 698.907552,443.747256 699.105926,446.198355 C699.408256,449.935949 699.856506,453.668781 700.001471,457.41304 C700.231318,463.38081 704.020455,467.022225 709.930669,466.572762 C711.626386,466.443255 713.283955,465.847145 714.98158,465.673835 C727.752868,464.372105 740.52511,463.064662 753.307844,461.870536 C767.666125,460.529764 782.038713,459.351827 796.396041,458.008198 C801.340135,457.544451 806.257524,456.79598 811.669895,456.117976 L811.669895,456.117976 Z M408.293261,233.525016 C394.449989,238.056788 379.71308,240.991632 369.136305,252.398671 C368.113915,253.499476 367.015228,255.468735 367.314697,256.707616 C370.394264,269.482091 373.804773,282.176576 377.000695,294.924388 C377.768441,297.988738 378.396944,300.277954 382.561847,300.270336 C384.660035,300.266527 386.681925,302.835706 388.893606,303.930797 C390.208788,304.582138 392.142936,305.340132 393.258791,304.843056 C408.587961,298.018258 423.823667,290.987774 439.073678,283.983953 C439.696459,283.698277 440.216237,283.186917 441.164236,282.50796 C434.317468,272.704515 427.670027,263.186746 420.977761,253.606128 C413.380413,257.007576 405.774482,260.415689 398.166643,263.821899 C397.961593,263.380053 397.756543,262.938208 397.5534,262.497315 C404.988615,259.059681 412.424784,255.622048 419.854277,252.188223 C415.735152,245.53864 412.000378,239.509926 408.293261,233.525016 L408.293261,233.525016 Z M724.381462,70.126962 C715.298215,55.7088985 706.167283,41.2156071 696.999155,26.6623237 C690.1686,32.2206247 683.965593,38.0388909 677.011054,42.7515912 C665.28409,50.698143 655.611444,60.7920253 645.897787,70.8506743 C640.418656,76.524198 640.353803,79.9970649 643.824396,86.0400628 C646.145755,90.0814247 648.303074,94.218012 650.481374,98.3393632 C652.632971,102.410245 654.716853,106.515408 656.903737,110.74722 C679.440183,97.1814235 701.585603,83.8498807 724.381462,70.126962 L724.381462,70.126962 Z M319.88325,474.204118 C324.951328,480.201407 330.254021,486.306302 335.367877,492.566413 C344.556033,503.81157 353.678382,515.1091 362.712035,526.477097 C364.676702,528.950098 366.581284,528.690133 368.809179,527.242708 C382.630515,518.262962 396.492861,509.345112 410.192121,500.181581 C411.618889,499.227423 413.015138,496.663006 412.793874,495.071791 C411.348032,484.653191 408.883615,474.350765 410.089119,463.701719 C410.375236,461.172535 409.366198,459.772723 406.606127,459.926036 C400.290581,460.276465 393.915905,460.149815 387.666166,460.974466 C374.610668,462.698044 361.481734,463.339863 348.809632,468.262059 C339.882796,471.729212 329.81817,472.278662 319.88325,474.204118 L319.88325,474.204118 Z M65.5819165,348.785725 C60.1218592,352.54522 55.6517651,355.93048 50.8726652,358.799618 C47.8484133,360.615565 47.2866712,362.319145 48.5045739,365.665363 C54.6494035,382.542143 60.6998146,399.457014 66.4183305,416.480442 C70.9504165,429.973868 74.7786557,443.7025 79.2764077,457.207353 C81.1638232,462.877068 82.6163415,463.35986 87.7750227,460.299319 C98.0551899,454.20109 108.111233,447.726722 118.25311,441.396143 C121.226815,439.53925 124.175723,437.643314 127.324912,435.646439 C106.570018,406.448456 86.2357157,377.841822 65.5819165,348.785725 L65.5819165,348.785725 Z M311.910136,419.055334 C312.304977,420.890326 312.561528,422.090165 312.82094,423.290004 C314.718847,432.065968 316.523288,440.864786 318.554716,449.610278 C319.592365,454.07825 321.881298,458.363388 326.692824,458.969973 C335.207652,460.043163 343.886521,460.930662 352.413747,460.445966 C360.225682,460.002216 367.902189,457.496838 375.682652,456.163684 C385.810223,454.430583 395.968314,452.855557 406.144526,451.434795 C409.116323,451.020565 409.521655,449.39126 408.984709,447.152513 C406.019588,434.808457 403.050652,422.463448 399.908139,410.163195 C397.563891,400.987285 397.505714,401.292958 387.931301,403.340302 C368.633694,407.466415 349.26265,411.245907 329.927848,415.200614 C323.898419,416.433782 317.889018,417.773602 311.910136,419.055334 L311.910136,419.055334 Z M525.354982,403.054626 C525.042161,401.427226 525.074588,401.109173 524.932483,400.922532 C516.513981,389.918296 507.789334,379.129269 499.803821,367.821264 C496.896877,363.705626 494.689965,363.422807 490.772076,365.717737 C474.490137,375.24979 456.727069,381.492761 439.205292,388.177577 C427.817854,392.521755 416.021269,395.797506 404.506985,399.520815 C404.454531,400.102642 404.344853,400.436883 404.41066,400.731129 C407.904143,416.283326 411.36806,431.843141 415.05038,447.351534 C415.242078,448.15714 417.351711,449.054162 418.507621,448.978934 C421.434594,448.788484 424.401622,448.314262 427.199842,447.457234 C428.65236,447.012532 430.42819,445.767937 430.944154,444.449067 C432.926941,439.386889 436.271644,436.488231 441.609625,435.074135 C448.325733,433.294374 454.914044,430.953736 461.425102,428.505494 C472.88407,424.197501 484.264832,419.67906 495.637011,415.146336 C505.645367,411.157348 515.598408,407.030283 525.354982,403.054626 L525.354982,403.054626 Z M180.634146,139.628103 C180.315602,140.181362 179.998013,140.734621 179.680424,141.28788 C213.15892,166.276905 233.061186,201.334101 251.359293,236.92075 C255.651041,235.153368 258.989067,233.516445 262.493995,232.408023 C266.017997,231.293887 269.706993,230.706346 273.759357,229.788375 C269.026035,194.291238 264.277455,158.676021 259.516475,122.96177 C233.377822,128.483886 207.006461,134.055518 180.634146,139.628103 L180.634146,139.628103 Z M445.087848,288.495727 C427.789242,296.435613 410.877847,304.196476 393.801458,312.034471 C394.487184,317.649907 393.702271,323.009187 389.31229,326.699168 C386.559849,329.01219 386.713398,331.57756 387.336178,334.147691 C390.500627,347.236409 393.756633,360.308939 397.289219,373.303384 C399.552401,381.628933 399.793692,381.568941 408.009052,378.962624 C419.963001,375.171705 431.98371,371.575997 443.836565,367.493688 C449.836429,365.427299 455.521564,362.45627 461.365972,359.932799 C469.729158,356.321856 478.108558,352.746145 487.009643,348.930467 C472.771531,328.404653 458.896786,308.402578 445.087848,288.495727 L445.087848,288.495727 Z M251.221003,533.977042 C251.527148,534.326519 251.694049,534.706468 251.951554,534.782648 C268.74278,539.700083 285.534006,544.616565 302.357659,549.422586 C303.273232,549.683504 304.562663,549.198807 305.503033,548.720776 C309.424737,546.726758 313.434184,545.678327 317.497038,548.007538 C325.633239,552.671674 334.170003,551.622291 341.485049,547.505701 C349.00896,543.271984 355.349303,536.918552 362.080671,531.339301 C362.687238,530.836511 362.884659,528.809165 362.390631,528.176869 C358.060734,522.640469 353.506712,517.280237 349.06523,511.82954 C340.98053,501.908968 332.225364,492.435002 325.098201,481.86785 C319.964317,474.256492 311.393219,473.681331 304.972764,469.020052 C304.567432,468.725806 303.236036,469.328582 302.56557,469.823754 C293.670207,476.387634 284.777705,482.956276 276.001557,489.677278 C274.918129,490.507642 273.854729,492.253122 273.907184,493.529141 C274.177087,500.166345 271.850959,502.933592 265.202565,503.840137 C263.847326,504.024874 261.973263,505.197098 261.511661,506.37313 C257.941881,515.446197 254.661078,524.633535 251.221003,533.977042 L251.221003,533.977042 Z M101.038432,291.541985 C100.66648,290.407852 100.626424,289.358469 100.21537,289.185159 C97.2292669,287.924376 94.2317193,286.617884 91.1206788,285.738003 C75.0056415,281.182424 58.809538,276.910617 42.7650762,272.125545 C39.9144017,271.276136 38.4580685,271.852249 37.3126486,273.903402 C29.7496348,287.439679 21.4131525,300.596007 17.2320362,315.777777 C14.4061585,326.040209 10.9679914,336.139804 8.31950599,346.444135 C6.89273818,351.991009 6.52269412,357.813084 5.73396619,363.518032 C5.03488812,368.564973 4.41687639,373.622389 3.67964944,379.318767 C14.339398,374.407998 24.3296338,369.777191 34.3465738,365.205424 C37.7446846,363.654204 40.952051,362.078225 42.4036156,358.180654 C42.8814302,356.895112 44.2748178,355.820018 45.4707849,354.952516 C53.406704,349.193289 61.548627,343.706407 69.3453027,337.766253 C79.8953732,329.730189 90.2566068,321.440826 100.578738,313.112421 C106.117954,308.642545 111.408249,303.863187 117.726656,298.437249 C110.836969,296.644157 108.399257,287.951039 101.038432,291.541985 L101.038432,291.541985 Z M250.098473,237.709215 C232.311561,204.686032 215.558484,171.872344 185.606851,148.728786 C180.307019,156.382043 174.733469,163.868657 169.815125,171.763787 C167.1819,175.988934 166.283494,181.312028 163.559664,185.455281 C152.368693,202.472043 140.778112,219.226936 129.328681,236.074197 C127.468924,238.810972 127.087435,240.966873 129.317237,244.254051 C135.763442,253.758488 141.616433,263.675252 147.434136,273.588206 C148.909544,276.103106 149.999648,276.301175 152.601401,275.281312 C172.394943,267.528068 192.268598,259.98051 212.111733,252.353915 C224.697046,247.517422 237.272822,242.655218 250.098473,237.709215 L250.098473,237.709215 Z M363.276638,321.18467 C354.124724,323.012996 345.194073,325.037486 336.17568,326.52681 C328.323688,327.823779 320.381093,328.63605 312.449943,329.334052 C311.39608,329.42642 310.171501,327.585715 309.025128,326.640128 C310.001739,325.685018 310.861042,324.069045 311.972128,323.872881 C328.660352,320.927562 345.381003,318.169837 359.94052,315.72826 C364.357205,309.292934 367.686648,304.440253 371.653177,298.661029 C368.511617,286.78929 365.030533,273.465365 361.414973,260.177626 C360.952418,258.476902 359.995835,255.747745 358.919084,255.566817 C351.584963,254.332697 345.511662,249.248618 336.950102,251.069326 C323.710536,253.884186 310.01223,254.5241 296.521835,256.194352 C292.301616,256.716186 290.514341,260.175722 292.005008,264.15233 C293.05601,266.95862 294.043112,269.803 294.800367,272.697849 C295.38786,274.94231 295.619614,277.285805 295.933389,279.59597 C297.444084,290.713525 299.015817,301.825366 300.394899,312.961013 C301.507892,321.953138 302.208878,330.99859 303.389586,339.980241 C305.461069,355.730506 307.733788,371.454109 309.980757,387.180568 C310.671252,392.010396 311.55249,396.81356 312.36983,401.775751 C314.754135,401.007282 316.322053,400.367368 317.95101,399.996942 C341.871306,394.566243 365.786834,389.115546 389.740511,383.837208 C392.743781,383.176344 393.108103,382.332648 392.273596,379.407326 C389.50971,369.726722 387.134943,359.933751 384.69723,350.163635 C383.136941,343.907333 381.730201,337.61294 380.293896,331.503284 C371.75904,331.219513 367.427236,328.579867 363.276638,321.18467 L363.276638,321.18467 Z M24.7979112,259.347262 C26.968582,259.933849 27.7363281,260.110016 28.4849997,260.347127 C45.772161,265.81306 63.0478776,271.314226 80.3512522,276.731593 C83.2963451,277.654326 86.9138119,279.559785 89.1998831,278.597057 C91.6137529,277.579098 92.7973217,273.666291 94.5435863,271.033311 C94.8897873,270.511476 95.3628333,270.074392 95.7509981,269.578268 C104.207649,258.774957 112.675745,247.981169 121.108553,237.159765 C136.476826,217.4367 147.395987,194.631192 164.396078,175.949891 C171.645318,167.983342 176.911769,158.199895 182.873484,149.10683 C183.517247,148.125057 183.290261,145.914878 182.59309,144.83788 C180.39953,141.448811 176.64282,140.378479 173.086391,138.789168 C168.590547,136.780867 164.698408,133.474644 160.355159,131.07211 C136.715257,117.992914 118.62983,98.8631024 102.033164,78.070657 C98.0818942,73.1198933 93.9885202,68.2824478 89.2523378,62.5336962 C87.0740372,66.243674 85.1417968,68.8595132 83.9067271,71.7695985 C81.0026442,78.6096322 78.6364604,85.6791588 75.6808766,92.4953862 C70.3715073,104.742313 64.6739733,116.822595 59.3445759,129.061903 C50.616114,149.108735 41.5748314,169.041296 33.6198378,189.394752 C29.5989467,199.683847 26.403025,210.64047 25.1317138,221.56186 C23.6839641,234.001142 24.7979112,246.737527 24.7979112,259.347262 L24.7979112,259.347262 Z M380.804138,23.4598967 C361.765943,39.4786975 343.82739,55.6784264 324.709083,70.3459802 C305.751001,84.8935501 285.605535,97.8975178 264.690416,112.478417 C269.536277,150.004805 274.582419,189.081461 279.705812,228.756132 C285.38904,228.254295 290.832884,227.911484 296.239533,227.263952 C305.071951,226.206951 313.891016,225.022348 322.695776,223.761565 C332.56012,222.350326 342.684831,221.78564 352.202021,219.104095 C375.034121,212.669721 397.588688,205.245004 420.235765,198.156433 C440.047428,191.956313 459.832387,185.669538 480.079901,179.278968 C471.429644,156.775324 462.843287,134.437372 454.320829,112.267969 C442.540457,115.963663 431.707131,119.224177 420.965363,122.75894 C396.93062,130.671211 372.950239,138.745365 348.927894,146.698582 C341.199886,149.257286 334.322598,145.789181 331.872487,138.188297 C329.642686,131.263512 327.172546,124.387293 325.469199,117.331098 C324.6366,113.883942 325.082942,110.050171 325.46443,106.445893 C325.555988,105.574582 327.685648,104.91848 328.877801,104.163343 C329.56448,105.371752 330.572564,106.505885 330.870125,107.802854 C331.387996,110.059694 331.180085,112.494605 331.785698,114.716211 C333.577742,121.287709 335.70168,127.769696 337.540456,134.329767 C339.189441,140.211834 342.520791,142.242038 348.312743,140.28611 C355.805182,137.754069 363.183174,134.883026 370.684196,132.37384 C389.779613,125.985174 408.915088,119.716492 428.27564,113.320208 C427.972357,112.465085 427.67098,111.450935 427.259926,110.483446 C421.807499,97.6280301 416.819534,84.5478822 410.730974,72.0000437 C405.547496,61.3157645 403.13458,49.2497661 394.88584,40.0500493 C390.09911,34.7117187 385.594682,29.1229456 380.804138,23.4598967 L380.804138,23.4598967 Z M252.845191,243.679842 C222.772436,255.169727 193.466472,266.65866 163.936384,277.538152 C146.613935,283.919199 132.114503,294.36732 118.234036,306.094316 C106.414562,316.079642 94.2784516,325.689779 82.3073356,335.494177 C78.2587866,338.808018 74.2827204,342.206609 70.6871892,345.219537 C75.422418,351.658672 79.8639004,357.49027 84.0841193,363.478037 C101.286399,387.880474 118.386631,412.35433 135.589865,436.755814 C149.389266,456.330328 163.346984,475.792476 177.097745,495.401271 C181.877799,502.216546 186.416561,509.274645 183.155786,518.294386 C186.43182,520.339826 189.572426,522.673798 193.044927,524.303103 C194.698681,525.079189 197.684784,525.373436 198.87026,524.412612 C206.548674,518.1944 213.893286,511.563862 221.356159,505.079018 C226.569202,500.547246 231.782246,496.015474 237.021993,491.514174 C245.460524,484.265624 253.934342,477.059925 262.345214,469.781855 C263.123451,469.108612 264.036163,468.062086 264.075266,467.153636 C264.270779,462.692331 264.192573,458.218646 264.206879,453.749722 C264.212602,451.873784 264.207833,449.996893 264.207833,448.120002 C264.715213,448.135238 265.2245,448.149522 265.73188,448.164758 C266.952644,460.845912 264.719982,473.500403 264.312742,485.427372 C267.142435,486.739577 269.391311,487.904182 271.740328,488.806918 C272.619659,489.14592 274.042612,489.298281 274.694004,488.821202 C283.626562,482.293507 292.508574,475.696298 301.270416,468.943872 C302.266101,468.176356 303.315195,465.878569 302.881252,465.110101 C299.023447,458.270067 299.342944,450.692038 298.453122,443.301602 C296.664893,428.439788 294.643957,413.606543 292.814718,398.74949 C291.156196,385.272253 289.580648,371.785493 288.04897,358.293972 C286.093841,341.067714 283.851641,323.863358 282.41629,306.593297 C280.984753,289.364182 280.556532,272.054126 279.346259,254.804062 C278.971446,249.440973 277.694413,244.100738 276.347758,238.874773 C276.046382,237.707311 273.401711,236.035155 272.370738,236.348446 C266.640777,238.088212 261.039569,240.280299 255.496538,242.566658 C254.749774,242.875188 254.093613,244.639713 254.214736,245.631009 C256.508437,264.349447 259.501216,283.004084 261.145432,301.775849 C262.603673,318.401235 262.700953,335.150414 263.19498,351.851028 C263.66135,367.652715 263.861632,383.46202 264.184944,399.267516 C264.204018,400.215008 264.276501,401.161547 264.321326,402.108087 C264.708537,410.244137 265.093841,418.379235 265.479144,426.515285 C264.12772,419.666681 263.578377,412.793318 263.252204,405.909481 C262.83352,397.089713 262.595089,388.262328 262.278454,379.437798 C261.641368,361.631619 261.063412,343.82163 260.346213,326.017355 C259.81499,312.809605 259.558439,299.566621 258.342444,286.416007 C257.028215,272.201725 254.739283,258.076956 252.845191,243.679842 L252.845191,243.679842 Z M559.282681,205.343086 C578.717624,194.544537 597.483054,184.116414 616.250392,173.691147 C619.467295,171.903768 623.230681,170.370641 626.234905,172.8046 C629.70073,175.612794 632.347308,179.471323 635.119777,183.050842 C635.610944,183.685043 635.364884,185.558125 634.759271,186.180898 C634.162241,186.795101 632.329187,187.051258 631.652999,186.581797 C630.052653,185.472422 628.638284,183.970719 627.470929,182.389979 C624.852008,178.845693 622.405712,177.227815 617.740105,179.906503 C603.835795,187.885431 589.645368,195.37014 575.545545,203.011019 C566.548134,207.886554 557.565028,212.382141 553.964728,223.389234 C552.116416,229.039904 548.855641,234.039232 552.099249,240.12032 C552.498858,240.867839 552.447357,242.089579 552.14312,242.924705 C551.671981,244.220722 550.804094,245.372948 550.10597,246.586118 C548.91954,245.689096 547.022587,245.013949 546.662081,243.859818 C544.556263,237.119771 542.779479,230.325445 547.036893,223.58635 C549.276232,220.042065 551.334364,216.335896 553.002423,212.499268 C553.699594,210.894722 553.786382,208.491235 553.096842,206.90859 C549.252389,198.07073 545.166645,189.333808 540.928305,180.676876 C540.386591,179.573214 538.202568,178.235299 537.241217,178.525736 C522.393676,183.016561 507.602404,187.702599 492.863588,192.53814 C491.464478,192.996173 489.805002,194.585484 489.449264,195.954824 C487.780251,202.385388 483.073633,205.891584 477.538232,208.14271 C462.184265,214.386634 446.672934,220.243942 430.85355,226.398354 C434.081898,232.661322 436.798098,239.153783 440.55004,244.982524 C453.161103,264.573226 465.99343,284.025852 479.035575,303.332782 C486.785519,314.805527 495.058102,325.928795 503.198117,337.133957 C503.854278,338.036693 505.65109,339.128927 506.351121,338.827063 C513.879801,335.570357 521.860545,332.901192 528.620525,328.419889 C541.195347,320.084818 553.07586,310.699412 565.131857,301.601586 C566.313518,300.709325 567.383594,298.751493 567.336862,297.326922 C567.191896,292.88371 568.06932,289.133737 571.143165,285.645634 C572.755909,283.816356 573.214649,280.947218 574.106379,278.515163 C575.42633,274.91279 576.233179,271.047595 578.029991,267.708043 C582.382777,259.617701 591.276233,256.48098 599.855914,259.33393 C600.711402,259.618654 602.39949,259.023496 602.977445,258.277881 C608.793241,250.77508 614.401125,243.113252 620.226458,235.61902 C621.062872,234.542974 622.747144,234.123983 624.038484,233.40027 C624.557308,234.921971 625.346036,236.417008 625.494817,237.97299 C625.583513,238.910007 624.824351,240.050806 624.189172,240.91069 C619.941295,246.668012 615.619981,252.372008 611.329187,258.098858 C606.193395,264.953175 601.737607,272.483592 595.745373,278.483739 C589.564302,284.673384 581.890656,289.376562 574.251345,295.200541 C574.874125,300.118928 572.32578,304.375499 567.091755,307.624587 C562.740876,310.327081 558.987981,313.973258 554.74678,316.876677 C543.359342,324.672773 533.405348,334.620009 520.266876,339.800265 C516.255522,341.381005 512.309975,343.126485 507.700638,345.063368 C510.02295,348.918088 511.830253,352.529984 514.189761,355.73622 C528.040662,374.547027 541.807637,393.426396 556.054333,411.938195 C562.326007,420.088529 566.471836,430.575692 577.880256,433.818114 C579.547362,434.291383 581.356572,435.749283 582.222552,437.253843 C584.193895,440.682906 587.358343,440.389612 590.082173,439.802072 C610.568117,435.378856 630.977764,430.595689 651.458939,426.14962 C663.451991,423.547112 675.508942,421.20457 687.586875,419.025815 C699.388228,416.896577 711.270648,415.217755 723.088215,413.172315 C737.032581,410.759306 750.999837,408.426286 764.845016,405.52001 C770.285045,404.37921 776.470885,406.121834 780.524203,398.8171 C783.651456,393.182619 783.756366,388.624184 781.476017,383.814354 C774.755139,369.641019 767.507808,355.717175 760.480785,341.688583 C748.409529,317.590867 736.000654,293.655035 724.372878,269.345919 C710.088033,239.478502 696.431691,209.310173 682.560761,179.245639 C678.724892,170.929613 675.21901,162.460275 671.328779,154.170912 C665.934529,142.674361 660.319015,131.282558 654.724483,119.691733 C637.231317,125.608082 620.209291,131.423491 603.142439,137.105585 C597.137807,139.104364 592.583785,142.633414 589.408845,148.133628 C588.540005,149.640092 587.030263,150.989434 585.503355,151.874078 C572.204658,159.5759 558.835386,167.154882 545.287767,174.883368 C549.937161,185.002009 554.455895,194.837831 559.282681,205.343086 L559.282681,205.343086 Z M223.171091,0.000190450611 L229.847144,0.000190450611 C245.141027,33.2319175 254.279589,68.5347949 264.078127,103.98051 C271.125177,99.8210689 277.665801,96.4786607 283.640868,92.3239806 C296.53328,83.3594704 309.151973,74.0035842 321.84601,64.757207 C328.272187,60.075931 334.924397,55.6850922 333.033166,45.8045145 C332.278773,41.8621869 333.75418,38.3388506 337.08553,34.9888244 C346.78202,25.2396576 355.79183,14.8086777 365.069635,4.64432859 C365.710536,5.18616057 366.351438,5.72704031 366.991385,6.26792004 C365.46543,4.17867684 363.939475,2.08943365 362.414474,0.000190450611 L381.48891,0.000190450611 C380.469381,1.17907973 379.6158,2.57603496 378.400759,3.49781591 C374.366515,6.55740497 372.972174,9.48082184 376.528603,14.2563709 C378.905278,17.4492754 380.750729,18.7605278 384.290945,16.7131838 C391.809133,12.3671008 399.372147,8.0962459 406.838835,3.6644602 C408.414384,2.73029995 409.658037,1.23621491 411.054286,0.000190450611 L417.730338,0.000190450611 C417.950648,1.05338233 418.033622,2.15799587 418.412249,3.1511958 C423.542319,16.5998657 428.733427,30.0247292 433.865404,43.4714945 C436.900146,51.424712 439.802322,59.4293512 442.889519,67.3616191 C443.684923,69.4042019 444.465068,71.0706448 447.736333,69.8346203 C472.80205,60.3625592 498.101428,51.496131 523.034577,41.6945904 C530.262834,38.852115 537.304162,34.4298518 543.064642,29.2238844 C551.986709,21.16211 558.153475,10.7101805 563.649773,0.000190450611 L571.279548,0.000190450611 C565.238674,9.20752521 559.44386,18.5891223 553.085397,27.5726776 C547.180905,35.9153666 539.190624,42.4430613 529.861317,46.1996995 C511.464024,53.607276 492.61562,59.8950029 473.983711,66.7264663 C465.030171,70.0088826 456.143391,73.4741315 446.91041,76.9765182 C460.176681,110.578672 473.29417,143.800876 486.481281,177.2002 C492.667121,175.269983 498.823395,173.142649 505.093162,171.429546 C528.353483,165.077066 550.18036,155.423125 571.098341,143.537102 C575.107787,141.259313 579.596955,138.51111 583.919223,138.413028 C589.932439,138.275904 593.631925,135.315349 596.489276,131.287319 C610.249574,111.889924 623.722802,92.287795 637.121639,72.6380533 C638.124955,71.1677746 638.507397,68.4681372 637.889385,66.8235962 C629.489004,44.4989756 620.860683,22.2600578 612.289585,0.000190450611 L619.919359,0.000190450611 C620.056695,0.916257887 620.036667,1.89326952 620.358071,2.73982248 C624.959779,14.8848579 629.599636,27.0146573 634.248076,39.1415999 C637.381052,47.3157401 640.541686,55.4794055 644.146754,64.8343395 C650.521431,57.4505694 657.034397,51.3361525 661.804913,44.0780797 C671.241037,29.719056 679.714855,14.7296407 688.587329,0.000190450611 L696.217103,0.000190450611 C689.500994,11.2063044 682.783932,22.4124183 676.067823,33.6185322 C677.451673,33.8432639 678.221327,33.5128321 678.86032,33.0167083 C682.794423,29.9590237 686.449085,26.4585415 690.666442,23.8665087 C699.386321,18.5081808 708.422835,13.6640695 717.286725,8.53618681 C722.070594,5.76798719 726.767674,2.85028384 731.50481,0.000190450611 L743.903193,0.000190450611 C743.410119,0.582017066 743.033399,1.37429161 742.407757,1.71424595 C731.614488,7.59345629 720.765902,13.3736323 709.985985,19.2776012 C706.201617,21.3497039 702.566029,23.6979599 698.547999,26.1081124 C707.965048,40.9984934 717.054971,55.3727532 726.110559,69.6917823 C751.511986,59.7616875 776.045525,49.4573572 799.084583,36.8657151 C793.832437,24.0645773 788.896926,12.03286 783.959509,0.000190450611 L790.635561,0.000190450611 C795.361253,11.1891638 800.086944,22.3790894 804.866998,33.696617 C812.09907,30.8236695 818.534785,28.2668701 824.969546,25.7110229 L824.969546,32.3767942 C811.870177,38.3902723 798.771762,44.4037503 785.538872,50.4791248 C792.213971,64.508669 798.79179,77.7211801 804.802145,91.1860382 C808.809684,100.161976 814.473837,105.596484 824.969546,103.795773 L824.969546,110.461545 C821.551407,110.143492 818.12087,109.91876 814.719898,109.474058 C812.745694,109.215998 810.195441,109.228377 808.994706,108.030442 C806.042937,105.084172 803.102612,101.816039 801.259068,98.1289153 C794.582062,84.776423 788.294174,71.2277665 782.010101,57.6829191 C780.466026,54.3538424 778.706409,53.5663292 775.504765,55.552729 C773.268287,56.9401617 770.79624,57.9771653 768.360435,59.0094076 C755.071275,64.6448412 741.401581,69.5222813 728.554948,76.0252174 C714.99207,82.8909619 702.185494,91.252696 689.08994,99.0326034 C680.673345,104.033836 672.3464,109.184573 663.94888,114.220087 C661.753412,115.537053 660.269421,116.574057 661.74769,119.730776 C673.677796,145.203545 685.388546,170.777253 697.207066,196.300491 C704.379054,211.790792 711.624479,227.245859 718.94334,242.946607 C720.101158,242.531425 721.322876,242.268603 722.370062,241.689633 C727.821536,238.675752 733.068913,235.25145 738.677751,232.576571 C757.849467,223.430181 775.548636,211.896492 792.969318,199.876202 C795.168601,198.35831 795.383188,196.911838 794.21774,194.460739 C791.220193,188.163489 788.585059,181.69293 785.82785,175.282362 C781.667715,165.617946 778.020683,155.692612 773.212018,146.363389 C769.828213,139.7957 767.565985,133.284193 767.754821,125.945179 C767.895972,120.384974 771.164377,118.222407 776.470885,119.525089 C782.1379,120.916331 784.853146,125.154809 787.401491,129.677059 C793.507217,140.511794 799.948655,151.182742 805.487871,162.300296 C809.052883,169.456478 813.151979,176.918333 811.496318,185.426714 C810.78198,189.096697 809.742424,193.719886 807.151162,195.832935 C796.422745,204.580332 785.425379,213.122042 773.794742,220.603894 C763.093029,227.487731 751.449994,232.911765 740.229457,238.9919 C734.105609,242.30955 727.998928,245.656719 721.748236,249.064833 C724.489232,255.237337 726.847786,261.14702 729.678432,266.822448 C747.840157,303.242318 766.27846,339.526016 784.235134,376.045873 C789.950789,387.668122 799.379283,392.096098 811.361843,392.169422 C815.892022,392.197037 820.433645,390.423942 824.969546,389.471689 L824.969546,417.087027 C820.181862,417.401271 816.424199,418.717285 813.819584,423.574727 C812.102885,426.780011 808.270831,428.856875 804.923267,431.852663 C808.396722,437.725208 812.559718,443.909139 815.79665,450.544438 C817.912958,454.884808 820.211428,456.957863 824.969546,455.17715 L824.969546,461.842921 C812.128636,462.803744 799.28391,463.713146 786.449676,464.74634 C779.892839,465.273889 773.349354,465.978556 766.807776,466.684175 C755.61585,467.893537 744.436324,469.233357 733.238676,470.389392 C725.751006,471.162622 718.193715,471.384496 710.751823,472.446259 C700.833117,473.860354 694.631064,468.823888 694.258159,458.707152 C694.086489,454.069679 693.363568,449.452204 692.832345,444.257664 C687.671756,445.265148 682.790608,446.167883 677.931395,447.177272 C659.08013,451.094841 640.183086,454.811484 621.405258,459.056628 C604.98503,462.769463 588.020226,464.63207 572.916134,473.158544 C569.912864,474.853554 568.791287,476.857095 568.480374,479.702427 C567.9873,484.22182 567.836612,488.777398 567.453216,493.310123 C566.832343,500.643424 566.276323,507.985295 565.444678,515.296694 C564.334546,525.050622 562.92113,534.770269 561.764265,544.519435 C561.006056,550.910958 560.470065,557.328191 559.834886,563.733998 L547.436503,563.733998 C548.06882,559.930699 548.900466,556.141684 549.181814,552.312674 C549.243806,551.457551 547.370696,549.647318 546.399807,549.655888 C536.474424,549.741591 526.547134,550.388171 516.627474,550.271044 C512.45208,550.222479 509.519385,551.088077 507.275278,554.706639 C505.320148,557.860501 502.912001,560.735353 500.704135,563.733998 L498.796691,563.733998 C501.900102,559.374583 505.004466,555.015169 508.457893,550.164392 C506.809862,549.844434 505.798916,549.599705 504.771758,549.455915 C495.473924,548.148472 492.200751,543.276745 494.50685,534.169397 C494.695687,533.422831 494.656585,532.566755 495.017092,531.926841 C495.689465,530.733668 496.579288,529.661431 497.377553,528.538725 C498.479102,529.69476 500.190079,530.692721 500.542002,532.043968 C501.08467,534.126546 500.34935,536.528128 500.824304,538.644986 C501.157152,540.132406 502.396991,542.290211 503.589143,542.556842 C508.287177,543.609081 513.124454,544.553717 517.914998,544.579427 C527.545681,544.629897 537.179225,543.982365 546.814676,543.775726 C549.585238,543.716686 550.27001,542.46733 550.351077,539.953382 C550.48269,535.885357 550.873716,531.819236 551.321965,527.770256 C552.523655,516.910763 553.807364,506.061744 555.070092,495.209868 C555.683335,489.940099 556.550268,484.686519 556.843061,479.39961 C556.97086,477.110394 556.659946,474.132699 555.290402,472.553863 C551.831253,468.563923 547.65872,465.19009 542.849101,460.70974 L416.001241,460.70974 C414.827209,476.645695 418.718394,491.287538 420.911954,506.062696 C423.189442,521.413015 426.479782,536.611926 428.989024,551.932725 C429.233177,553.429667 427.106377,555.314176 426.080173,557.018709 C424.902326,555.748403 422.991068,554.63522 422.676339,553.178272 C421.397399,547.26002 420.645866,541.228449 419.630152,535.251156 C417.688374,523.828881 415.698911,512.414224 413.644594,500.509156 C411.91645,501.504261 410.705223,502.145127 409.55122,502.876457 C403.109783,506.950196 396.582511,510.899189 390.272688,515.166235 C377.262015,523.965053 364.224638,532.736256 351.481961,541.911214 C343.501217,547.657109 336.121318,554.31431 325.099155,551.40232 C324.309473,551.192825 323.348122,551.628957 322.466883,551.765129 L321.925169,552.979252 C323.124951,553.705821 324.246528,554.784723 325.544543,555.068495 C327.213556,555.43416 329.02372,555.217046 330.769031,555.152293 C334.111826,555.027548 335.820895,556.506397 335.715032,559.924985 C335.67593,561.193386 335.710264,562.464644 335.710264,563.733998 L334.756542,563.733998 C334.657355,560.113531 334.667846,556.605431 329.631241,556.062647 C324.8674,555.549383 322.46879,556.996807 323.145933,562.106597 C323.211739,562.605578 322.636645,563.189309 322.358158,563.733998 L313.774662,563.733998 C314.469925,563.179786 315.597225,562.737941 315.777478,562.049462 C316.278182,560.144956 317.004918,557.930015 316.441268,556.235957 C316.007325,554.932323 313.682151,553.367771 312.327866,553.480137 C310.613074,553.622022 307.85205,555.157054 307.647953,556.428312 C307.278863,558.732764 308.4672,561.285755 309.006053,563.733998 L301.376279,563.733998 L301.376279,551.459456 C301.324778,551.432793 300.428279,550.778595 299.424964,550.471969 C284.775797,545.992571 270.132353,541.493175 255.442176,537.15471 C250.275865,535.629201 240.868353,538.916378 238.693867,543.337689 C235.426417,549.980607 232.765533,556.920627 229.847144,563.733998 L226.032257,563.733998 C226.925894,562.936009 228.180038,562.309427 228.655945,561.31337 C231.692596,554.963747 234.55853,548.533182 237.726794,541.590305 C231.977759,540.237153 226.781882,539.386791 221.8664,537.713683 C219.071041,536.76143 217.417288,537.278503 215.705357,539.264903 C208.667844,547.430473 201.609349,555.578902 194.559438,563.733998 L191.698272,563.733998 C199.692368,554.760917 207.686464,545.787836 216.207969,536.222455 C208.332134,532.786726 200.994198,530.15565 194.219913,526.484715 C186.140935,522.107208 180.513023,522.285279 172.682013,528.973904 C157.760082,541.718859 140.959319,552.271728 124.937746,563.733998 L113.493085,563.733998 C119.977439,559.105095 126.461794,554.477146 132.899416,549.88062 C115.988975,526.920847 99.6021267,504.567659 83.0369328,482.346834 C81.4175132,480.173792 78.8977802,477.776971 76.4495763,477.314176 C72.4172406,476.552374 69.9890649,474.656438 68.1197702,471.304507 C62.3631054,460.983036 56.4910403,450.725367 50.7496351,440.395325 C49.7882835,438.667938 49.2475232,436.708202 48.51125,434.856069 C49.5632051,434.882732 50.0391123,435.119843 50.2508386,435.502649 C55.6660709,445.302285 60.9048648,455.203813 66.5098878,464.89394 C69.2766347,469.675202 70.9771207,475.923887 78.6593497,475.519179 C79.9707172,475.450617 81.7398711,477.139914 82.7040839,478.452119 C99.3846781,501.148118 115.996604,523.893634 132.539863,546.688668 C134.023854,548.73506 135.096791,548.938842 137.088162,547.384765 C141.257834,544.129964 145.640185,541.150364 149.879479,537.98317 C158.120589,531.82495 166.456117,525.780048 174.484547,519.355196 C178.243165,516.347029 178.819213,510.524001 176.35575,506.383605 C173.176995,501.039561 170.097427,495.605053 166.497127,490.549541 C155.303295,474.834509 143.918717,459.253745 132.454981,443.732972 C131.812173,442.862613 129.379229,442.291261 128.472239,442.802621 C123.197204,445.781269 118.158692,449.173194 112.984751,452.333722 C105.026896,457.193069 97.2378504,462.385705 88.9824345,466.679414 C80.6964995,470.989311 76.3561116,468.78675 73.3938517,459.951746 C71.8183033,455.256187 70.3114228,450.53682 68.7358744,445.840308 C61.4017538,423.963247 54.0676332,402.085233 46.701086,380.219598 C44.8584955,374.752713 42.8919212,369.32868 40.969218,363.844655 C31.1353926,368.399281 21.9500979,373.05199 12.4414916,376.910519 C6.69531777,379.241634 2.89092151,382.46882 1.89809712,388.737502 C1.55094239,390.932445 0.649675289,393.037877 0.000190744359,395.185207 L0.000190744359,356.142832 C0.308242885,355.66861 0.822298934,355.223908 0.892874347,354.717309 C1.919079,347.310685 2.88424546,339.896443 3.87516241,332.401259 C2.7326037,331.820385 1.36592036,331.126192 0.000190744359,330.432 L0.000190744359,329.479747 C1.66157412,329.775897 3.32391121,330.072048 5.36773702,330.436761 C7.88460885,323.342476 10.4014807,316.252952 13.0280305,308.850136 C7.92085028,307.977873 3.96004365,307.301773 0.000190744359,306.625673 L0.000190744359,304.721167 C3.50416463,305.372508 7.14547445,305.631521 10.4691949,306.796127 C13.3847225,307.816942 13.6832374,306.805649 14.4872249,304.377404 C18.9029568,291.050622 17.6154324,277.099163 18.7713432,263.483849 C20.0836644,248.029734 18.5996732,232.357553 19.2873067,216.822497 C19.604896,209.66822 21.2233619,202.215887 23.9424228,195.590111 C33.0142245,173.491174 42.8413739,151.700767 52.3976663,129.800852 C58.2315826,116.432171 63.9529596,103.013021 70.0043244,89.7433749 C74.8520923,79.1143263 76.0604578,66.7883628 85.3506619,58.0838176 C81.8495492,53.9110448 78.4819575,50.2096371 75.4729652,46.2387419 C70.5155193,39.6977157 65.3816349,33.2776256 64.1799454,24.6473562 C63.769845,21.7020375 62.6320549,18.1053777 60.533867,16.330378 C57.691776,13.9268913 53.5783739,13.048914 50.057233,11.4138955 C41.9391531,7.6420212 33.8515922,3.80825041 25.7506793,0.000190450611 L41.0102281,0.000190450611 C48.0839826,3.32926712 55.1586909,6.6602483 62.5471737,10.1378764 C63.0850728,6.09746675 63.492312,3.04930472 63.8995512,0.000190450611 L70.5756038,0.000190450611 C69.9404251,4.45673474 68.46311,8.98374575 68.8379227,13.3545873 C69.7353749,23.8274663 72.6156147,33.5994872 80.2186849,41.7050651 C87.8160327,49.8030251 94.7066727,58.5656577 101.841465,67.0911793 C109.264282,75.9595119 116.503984,84.9821096 124.012636,93.7771188 C136.703812,108.642741 153.101151,118.888984 169.351617,129.219977 C173.102604,131.603467 176.613254,134.608777 182.442402,132.932812 C193.456935,129.764666 204.887291,128.045849 216.138347,125.690928 C230.535731,122.677047 244.924532,119.629837 259.777795,116.500733 C259.16646,112.762188 258.88988,109.160767 257.959048,105.735513 C255.077854,95.1321749 252.105103,84.5478822 248.876755,74.0454833 C244.378049,59.4122106 239.855501,44.778938 234.88661,30.3027871 C231.372145,20.0679713 227.103286,10.0921683 223.171091,0.000190450611 L223.171091,0.000190450611 Z" id="Fill-1" fill="#FFFFFF" mask="url(#mask-6)"></path>
                        </g>
                        <path d="M612.413043,0 C620.98414,22.2598674 629.612461,44.4987851 638.012843,66.8234057 C638.630855,68.4679467 638.248412,71.1675841 637.245097,72.6378628 C623.846259,92.2876046 610.373032,111.889734 596.613687,131.288081 C593.756337,135.316111 590.05685,138.275713 584.04268,138.412838 C579.720413,138.51092 575.232198,141.259122 571.222752,143.536912 C550.303818,155.422934 528.476941,165.076876 505.217574,171.429356 C498.946853,173.142459 492.790579,175.270745 486.604739,177.200009 C473.417628,143.800686 460.300138,110.579433 447.033868,76.9763277 C456.266849,73.473941 465.153628,70.0096444 474.107169,66.7262759 C492.740031,59.8948125 511.587482,53.6070856 529.984775,46.1995091 C539.314082,42.4428708 547.304363,35.9151761 553.208855,27.5734394 C559.567318,18.5889318 565.362131,9.20733476 571.403005,0 L612.413043,0 Z" id="Fill-9" stroke="#BDC0C2"></path>
                        <path d="M223.294549,0 C227.226744,10.0919778 231.496557,20.0677808 235.010068,30.3025966 C239.978958,44.7787475 244.501507,59.4129724 249.000213,74.0452929 C252.228561,84.5476918 255.201312,95.1319844 258.083459,105.736274 C259.013338,109.160576 259.289917,112.76295 259.901253,116.500543 C245.048943,119.629646 230.659189,122.676856 216.261805,125.690737 C205.010748,128.045659 193.580393,129.764476 182.56586,132.932622 C176.737666,134.608587 173.226062,131.603276 169.475074,129.219787 C153.224609,118.889746 136.82727,108.642551 124.136094,93.7769284 C116.627442,84.9819192 109.38774,75.9602737 101.964923,67.0919411 C94.8301303,58.5654672 87.9394903,49.8028346 80.3421425,41.7048747 C72.7390723,33.5992967 69.8588325,23.8272759 68.9613803,13.3543968 C68.5865676,8.98450755 70.0638827,4.45654429 70.6990614,0 L223.294549,0 Z" id="Fill-11" stroke="#BDC0C2"></path>
                        <path d="M362.537932,0 C364.063886,2.0892432 365.588888,4.17848639 367.114842,6.26772959 C366.474895,5.72684986 365.833994,5.18597012 365.193093,4.64413814 C355.915287,14.8084872 346.905478,25.2394672 337.208988,34.9886339 C333.877638,38.3386601 332.40223,41.8619964 333.156624,45.8052763 C335.047854,55.685854 328.395645,60.0757406 321.969467,64.7570166 C309.27543,74.0033937 296.656737,83.3602322 283.764326,92.3247424 C277.790213,96.4784703 271.248635,99.8208785 264.202538,103.98032 C254.403047,68.5346044 245.264484,33.231727 229.970602,0 L362.537932,0 Z" id="Fill-19" stroke="#BDC0C2"></path>
                        <path d="M545.41113,174.883844 C558.958748,167.154406 572.32802,159.575424 585.626717,151.874554 C587.154579,150.989911 588.663367,149.640568 589.532208,148.134104 C592.707147,142.632938 597.261169,139.103888 603.265801,137.106061 C620.332653,131.423967 637.35468,125.608558 654.847845,119.69221 C660.442377,131.282081 666.057891,142.674837 671.452141,154.170436 C675.343326,162.460751 678.848254,170.930089 682.685077,179.246115 C696.556007,209.310649 710.211395,239.478978 724.497194,269.345442 C736.124016,293.654558 748.533845,317.591343 760.604148,341.689059 C767.63117,355.717651 774.879455,369.641495 781.600333,383.81483 C783.879728,388.62466 783.774819,393.183095 780.648519,398.816624 C776.595201,406.121357 770.408408,404.378734 764.968379,405.520486 C751.124153,408.42581 737.155943,410.759782 723.211577,413.172791 C711.39401,415.217279 699.51159,416.897053 687.710237,419.025339 C675.632304,421.205046 663.576307,423.547588 651.582301,426.150096 C631.101126,430.595213 610.691479,435.379332 590.205535,439.801596 C587.481706,440.390088 584.317257,440.68243 582.346868,437.254319 C581.480888,435.748807 579.670724,434.291859 578.003618,433.817637 C566.595198,430.576168 562.44937,420.088053 556.177695,411.937719 C541.931953,393.426872 528.164025,374.547503 514.314077,355.735744 C511.953615,352.53046 510.147266,348.918564 507.824,345.062892 C512.433337,343.126961 516.379838,341.380529 520.390238,339.799789 C533.52871,334.620485 543.483658,324.673249 554.870143,316.876201 C559.111343,313.972782 562.864239,310.327557 567.215117,307.625063 C572.449143,304.375976 574.998441,300.118452 574.374707,295.201017 C582.014019,289.377038 589.687664,284.67386 595.868735,278.484215 C601.861923,272.483116 606.317711,264.953651 611.452549,258.098382 C615.743344,252.372484 620.065611,246.667536 624.313488,240.910214 C624.948667,240.05033 625.707829,238.90953 625.618179,237.973466 C625.470352,236.416532 624.680671,234.921495 624.161846,233.399794 C622.870507,234.123507 621.186234,234.54345 620.34982,235.618544 C614.524487,243.112775 608.916603,250.775556 603.100808,258.277405 C602.522852,259.023972 600.834765,259.618178 599.979276,259.333454 C591.399595,256.481456 582.507093,259.617225 578.153353,267.708519 C576.356541,271.048071 575.549692,274.912314 574.229741,278.514687 C573.338011,280.946741 572.879271,283.81588 571.267481,285.645158 C568.192682,289.133261 567.315258,292.883233 567.460224,297.326446 C567.506956,298.751969 566.43688,300.709801 565.255219,301.60111 C553.199222,310.699888 541.318709,320.084342 528.744841,328.420365 C521.984861,332.900716 514.004117,335.569881 506.474484,338.826586 C505.775406,339.129403 503.97764,338.036216 503.321479,337.133481 C495.181464,325.928319 486.908881,314.806003 479.158938,303.333258 C466.117746,284.025376 453.284465,264.57275 440.673402,244.982048 C436.92146,239.154259 434.206214,232.660846 430.976912,226.397878 C446.796296,220.243466 462.307627,214.386158 477.661594,208.142234 C483.197949,205.891108 487.903613,202.385865 489.572626,195.9553 C489.928364,194.585008 491.588794,192.996649 492.98695,192.537664 C507.725767,187.702123 522.517038,183.017037 537.365533,178.526212 C538.32593,178.234823 540.510907,179.572738 541.051667,180.677352 C545.290007,189.333332 549.375751,198.071206 553.221158,206.908114 C553.909745,208.491711 553.822956,210.894246 553.125785,212.498792 C551.457726,216.336372 549.399594,220.041588 547.160256,223.586827 C542.902841,230.324969 544.680579,237.119295 546.786397,243.860294 C547.146903,245.013472 549.042902,245.689572 550.229332,246.586595 C550.927457,245.373424 551.796297,244.221198 552.267436,242.925182 C552.570719,242.090056 552.623174,240.868315 552.223565,240.119844 C548.979003,234.038756 552.239778,229.039428 554.088091,223.388758 C557.68839,212.382617 566.671496,207.88703 575.669861,203.010543 C589.768731,195.370616 603.959157,187.885907 617.863467,179.906027 C622.530028,177.228291 624.975371,178.846169 627.594291,182.390455 C628.7626,183.970243 630.176016,185.472898 631.776361,186.582273 C632.45255,187.051734 634.286557,186.795578 634.883586,186.180422 C635.488246,185.557649 635.734306,183.685519 635.244093,183.051319 C632.47067,179.471799 629.824092,175.612318 626.358267,172.804124 C623.354997,170.370165 619.590657,171.904244 616.373754,173.691623 C597.60737,184.115938 578.840986,194.544061 559.406043,205.34261 C554.579257,194.838307 550.060523,185.001533 545.41113,174.883844 Z" id="Fill-69" stroke="#BDC0C2"></path>
                        <path d="M272.494482,236.347684 C273.525455,236.035345 276.170125,237.707501 276.471501,238.874964 C277.818157,244.100928 279.09519,249.440211 279.470003,254.804253 C280.680276,272.054317 281.108497,289.364373 282.540033,306.593487 C283.975385,323.863549 286.217584,341.067904 288.172714,358.29321 C289.704391,371.785683 291.27994,385.272443 292.938462,398.748729 C294.7677,413.605781 296.788637,428.439027 298.576865,443.30084 C299.466688,450.692228 299.147191,458.270258 303.004996,465.109339 C303.438939,465.877808 302.389845,468.175594 301.394159,468.944062 C292.632317,475.696489 283.749352,482.293698 274.817748,488.821393 C274.166356,489.298471 272.743403,489.145159 271.864071,488.807109 C269.515055,487.903421 267.266179,486.739767 264.435532,485.427563 C264.843725,473.500593 267.076388,460.846102 265.855624,448.163996 C265.34729,448.149712 264.838957,448.135429 264.331577,448.120193 C264.331577,449.997083 264.336345,451.873022 264.330623,453.749913 C264.315363,458.218836 264.393569,462.692521 264.199009,467.152874 C264.158953,468.061324 263.247195,469.10785 262.468958,469.782045 C254.058085,477.060115 245.584267,484.265814 237.145737,491.513412 C231.905989,496.014712 226.692946,500.547437 221.478949,505.078257 C214.01703,511.5631 206.672418,518.193638 198.994004,524.412803 C197.808528,525.372674 194.822425,525.078428 193.168671,524.302341 C189.69617,522.673989 186.555564,520.339064 183.27953,518.293625 C186.540305,509.274836 182.001542,502.216736 177.221489,495.400509 C163.470728,475.792666 149.512056,456.329566 135.713609,436.756005 C118.510375,412.353568 101.410143,387.880665 84.2078631,363.478228 C79.9876441,357.490461 75.5461617,351.658863 70.810933,345.218776 C74.4055104,342.206799 78.3825303,338.808208 82.4310793,335.494367 C94.4021954,325.68997 106.538305,316.07888 118.356826,306.094507 C132.238247,294.36751 146.737679,283.91939 164.060128,277.538342 C193.590216,266.658851 222.896179,255.169918 252.968935,243.680033 C252.968935,243.680033 266.764521,238.08745 272.494482,236.347684 Z" id="Fill-71" stroke="#BDC0C2"></path>
                        <path d="M380.927786,23.4598967 C385.717377,29.1229456 390.222759,34.7117187 395.009488,40.0500493 C403.258228,49.2497661 405.671144,61.3157645 410.854622,72.0000437 C416.943182,84.5478822 421.931147,97.6280301 427.383575,110.483446 C427.794629,111.450935 428.096005,112.465085 428.399288,113.320208 C409.038736,119.716492 389.903262,125.985174 370.807844,132.37384 C363.306822,134.883026 355.92883,137.754069 348.436392,140.28611 C342.644439,142.242038 339.313089,140.210882 337.664104,134.329767 C335.825328,127.769696 333.70139,121.287709 331.909347,114.716211 C331.303733,112.494605 331.511645,110.059694 330.993774,107.802854 C330.696213,106.505885 329.688129,105.371752 329.001449,104.163343 C327.809297,104.91848 325.679636,105.574582 325.588079,106.445893 C325.20659,110.050171 324.760248,113.883942 325.591894,117.331098 C327.296194,124.387293 329.76538,131.26256 331.996135,138.188297 C334.446247,145.789181 341.323535,149.257286 349.051542,146.698582 C373.073887,138.745365 397.054268,130.671211 421.089011,122.75894 C431.830779,119.223225 442.663152,115.963663 454.444477,112.267969 C462.966935,134.437372 471.552339,156.775324 480.203549,179.278968 C459.956035,185.669538 440.171077,191.956313 420.359414,198.156433 C397.712336,205.245004 375.157769,212.669721 352.325669,219.104095 C342.808479,221.78564 332.683769,222.350326 322.819424,223.761565 C314.014665,225.021396 305.195599,226.206951 296.363182,227.263952 C290.956533,227.911484 285.512689,228.254295 279.829461,228.756132 C274.706067,189.081461 269.659925,150.004805 264.814065,112.477464 C285.729184,97.8975178 305.874649,84.8935501 324.832731,70.3459802 C343.951038,55.6774742 361.889591,39.4786975 380.927786,23.4598967" id="Fill-73" stroke="#BDC0C2"></path>
                        <path d="M380.41764,331.503665 C381.853945,337.613321 383.260685,343.906761 384.820974,350.163064 C387.258687,359.934132 389.633454,369.727103 392.39734,379.407707 C393.231846,382.332076 392.866571,383.175773 389.864255,383.837588 C365.910578,389.114975 341.99505,394.566624 318.074754,399.997323 C316.445797,400.366797 314.877878,401.007663 312.493574,401.776131 C311.676234,396.812989 310.794995,392.009824 310.104501,387.179997 C307.857532,371.45449 305.584813,355.729935 303.513329,339.980622 C302.332622,330.998019 301.630682,321.953519 300.517689,312.960442 C299.139561,301.824794 297.567828,290.713906 296.057132,279.595399 C295.743358,277.285233 295.51065,274.942691 294.924111,272.69823 C294.166856,269.803381 293.179754,266.958049 292.128752,264.152711 C290.638085,260.176103 292.42536,256.716567 296.645579,256.19378 C310.13502,254.524481 323.83428,253.884567 337.073846,251.068754 C345.635406,249.248999 351.708707,254.333078 359.042827,255.566246 C360.119579,255.747174 361.075208,258.477283 361.538717,260.177055 C365.154277,273.464794 368.635361,286.789671 371.776921,298.660457 C367.810392,304.440633 364.480949,309.292363 360.064263,315.728641 C345.504746,318.169266 328.784096,320.927943 312.095872,323.873262 C310.984786,324.068473 310.125483,325.685399 309.148871,326.640509 C310.294291,327.586096 311.519824,329.426801 312.573686,329.334433 C320.503883,328.635479 328.447432,327.823207 336.299424,326.526239 C345.317817,325.036915 363.400382,321.185051 363.400382,321.185051 C367.550979,328.579296 371.882784,331.219894 380.41764,331.503665 Z" id="Fill-77" stroke="#BDC0C2"></path>
                        <path d="M250.222312,237.70893 C237.396661,242.654932 224.820885,247.517136 212.235573,252.353629 C192.391483,259.980224 172.517828,267.527782 152.724286,275.281978 C150.123487,276.300889 149.032429,276.102821 147.557975,273.58792 C141.740272,263.675918 135.887281,253.758203 129.440122,244.254717 C127.211274,240.966587 127.592763,238.810687 129.452521,236.073911 C140.901951,219.22665 152.491578,202.471758 163.683503,185.454996 C166.407333,181.311743 167.305739,175.988648 169.938011,171.763501 C174.857308,163.869324 180.430858,156.381758 185.73069,148.7285 C215.682323,171.872058 232.4354,204.685746 250.222312,237.70893" id="Fill-79" stroke="#BDC0C2"></path>
                        <path d="M445.211782,288.495442 C459.02072,308.402292 472.894511,328.404367 487.133578,348.930182 C478.232492,352.746812 469.853093,356.32157 461.488952,359.932514 C455.644545,362.455984 449.960363,365.427966 443.960499,367.493403 C432.107645,371.575712 420.085982,375.171419 408.132986,378.962339 C399.917627,381.568655 399.676335,381.628647 397.413153,373.303099 C393.880568,360.308653 390.624562,347.237076 387.459159,334.147405 C386.837332,331.578227 386.683783,329.011905 389.436224,326.698882 C393.826206,323.009854 394.610165,317.649621 393.925393,312.034185 C411.001782,304.19619 427.912223,296.435328 445.211782,288.495442" id="Fill-85" stroke="#BDC0C2"></path>
                        <path d="M180.757985,139.627818 C207.129346,134.055233 233.501661,128.4836 259.640315,122.961485 C264.401294,158.675735 269.149875,194.290952 273.883196,229.789041 C269.830832,230.706061 266.140882,231.294553 262.617834,232.408689 C259.111953,233.517112 255.773926,235.153083 251.483132,236.920464 C233.185026,201.333815 213.282759,166.276619 179.804263,141.288547 C180.121852,140.734336 180.439442,140.181077 180.757985,139.627818" id="Fill-87" stroke="#BDC0C2"></path>
                        <path d="M525.478153,403.054626 C515.722533,407.030283 505.768539,411.157348 495.761136,415.146336 C484.388003,419.67906 473.007241,424.197501 461.549228,428.505494 C455.038169,430.953736 448.448905,433.294374 441.732796,435.074135 C436.395769,436.488231 433.051067,439.386889 431.068279,444.449067 C430.552315,445.766985 428.775532,447.012532 427.323013,447.457234 C424.524794,448.314262 421.557765,448.788484 418.631747,448.978934 C417.475836,449.054162 415.366203,448.15714 415.174505,447.351534 C411.491232,431.843141 408.028268,416.283326 404.533831,400.731129 C404.468024,400.436883 404.577702,400.102642 404.630157,399.520815 C416.14444,395.797506 427.941025,392.521755 439.329417,388.177577 C456.85024,381.492761 474.613309,375.24979 490.895247,365.717737 C494.81409,363.422807 497.020049,363.705626 499.926993,367.821264 C507.912505,379.129269 516.637152,389.918296 525.056608,400.922532 C525.197759,401.109173 525.166286,401.427226 525.478153,403.054626" id="Fill-89" stroke="#BDC0C2"></path>
                        <path d="M312.033498,419.055525 C318.013334,417.77284 324.021781,416.433972 330.052164,415.200805 C349.386013,411.245145 368.75801,407.466605 388.054663,403.340493 C397.629076,401.293149 397.688207,400.986523 400.032455,410.163386 C403.174015,422.463639 406.14295,434.807695 409.108072,447.152704 C409.645971,449.39145 409.239685,451.019803 406.268842,451.434985 C396.09263,452.855747 385.933586,454.429821 375.806014,456.163874 C368.025551,457.497028 360.349045,460.002406 352.538063,460.446156 C344.009883,460.930853 335.331014,460.042401 326.816186,458.970164 C322.00466,458.363579 319.716681,454.07844 318.678078,449.610469 C316.646651,440.864977 314.842209,432.066158 312.944303,423.289242 C312.685844,422.090355 312.428339,420.890517 312.033498,419.055525" id="Fill-91" stroke="#BDC0C2"></path>
                        <path d="M408.417195,233.52473 C412.124312,239.50964 415.859087,245.538354 419.978211,252.187937 C412.548718,255.622714 405.112549,259.059395 397.676381,262.497029 C397.880477,262.938874 398.085527,263.38072 398.290577,263.821613 C405.897462,260.415404 413.504348,257.008242 421.101695,253.605842 C427.793008,263.18646 434.441402,272.705182 441.288171,282.507675 C440.340171,283.186631 439.820393,283.697991 439.196659,283.984619 C423.947601,290.987488 408.711896,298.018925 393.381771,304.84277 C392.265917,305.339846 390.332723,304.582805 389.016587,303.930512 C386.80586,302.835421 384.783969,300.266242 382.685781,300.270051 C378.519925,300.277669 377.892376,297.988452 377.123676,294.924102 C373.928708,282.176291 370.518199,269.482757 367.437677,256.708283 C367.139162,255.468449 368.23785,253.500142 369.259286,252.398385 C379.836061,240.991346 394.57297,238.056502 408.417195,233.52473" id="Fill-99" stroke="#BDC0C2"></path>
                        <path d="M437.645431,443.64108 C441.194229,442.393628 444.769732,441.2195 448.285151,439.886346 C459.442742,435.656438 470.532619,431.243697 481.735989,427.140439 C491.347598,423.619959 501.191914,420.712731 510.712919,416.977042 C515.870646,414.952552 520.644977,411.889154 525.44792,409.05144 C528.625721,407.173597 530.48071,407.272631 532.604649,410.820726 C535.391424,415.473435 539.209172,419.498608 542.374575,423.941821 C543.821371,425.973929 545.511366,427.497534 547.435976,425.473044 C548.300048,424.564595 548.157944,421.564997 547.296733,420.335639 C540.603514,410.785493 533.751976,401.337238 526.697296,392.047057 C518.789035,381.632266 510.617546,371.417447 502.366899,360.868388 C505.291964,358.375389 507.001033,356.565156 510.165482,360.943616 C525.300094,381.877947 540.857204,402.507557 556.294145,423.221918 C557.971741,425.472092 559.853434,427.568953 561.928733,430.088614 C559.678903,430.799948 557.498695,430.947547 556.059529,432.055017 C552.788263,434.573726 548.890402,437.042919 547.070701,440.491027 C544.672091,445.03994 541.370306,445.706517 537.165346,445.650334 C513.713327,445.340852 490.262262,444.90472 466.810243,444.761882 C458.137097,444.709508 449.462044,445.345613 440.786036,445.638907 C439.899075,445.668427 439.006392,445.502735 438.115615,445.427507 C437.959205,444.831396 437.801841,444.236238 437.645431,443.64108" id="Fill-103" stroke="#BDC0C2"></path>
                        <path d="M430.192572,113.116807 C422.187031,94.3593263 414.102331,75.9122802 406.45539,57.2852582 C402.674837,48.0741145 397.807994,39.7285687 390.887789,32.557151 C388.382362,29.9613091 385.769164,27.3683241 383.841692,24.3668225 C383.019584,23.0869944 383.125447,19.6369815 384.006686,19.0875315 C392.451893,13.8253812 401.147928,8.96698609 409.789601,4.02288825 C410.162506,3.80958356 410.70422,3.89147732 411.630284,3.78006372 C424.793552,37.7412166 437.976849,71.7566479 451.406206,106.405327 C444.479324,108.596462 437.605851,110.771408 430.192572,113.116807" id="Fill-105" stroke="#BDC0C2"></path>
                        <path d="M295.498919,366.801591 L301.28038,366.801591 C302.627989,377.29542 303.993719,387.760681 305.307948,398.232607 C306.007026,403.801383 305.905931,409.592034 307.485294,414.89037 C308.733716,419.078379 311.64066,422.601715 312.224338,427.390596 C313.099855,434.57725 315.165616,441.62297 316.771684,448.718208 C318.811695,457.741757 323.962746,461.831684 333.214801,461.842159 C337.335833,461.84692 341.456865,461.843111 345.577897,461.843111 C345.684714,462.284005 345.790577,462.724898 345.898347,463.165791 C342.232241,463.994251 338.5957,464.994117 334.895259,465.607368 C330.131419,466.397738 325.296049,466.742453 320.531255,467.525205 C314.74121,468.477458 310.295913,466.793875 308.421849,461.114638 C306.403774,454.999269 305.334652,448.510616 304.431477,442.102906 C302.628943,429.300816 301.152582,416.451113 299.672406,403.605219 C298.582301,394.143633 297.726813,384.655383 296.71396,375.185227 C296.433566,372.571292 295.964335,369.976403 295.498919,366.801591" id="Fill-111" stroke="#BDC0C2"></path>
                        <path d="M482.896859,197.648787 C478.632769,199.894199 474.522228,202.513847 470.077885,204.314558 C455.566054,210.197577 441.058992,216.133923 426.310638,221.37798 C412.154545,226.41159 397.585491,230.288212 383.438935,235.345628 C378.494842,237.11301 374.260317,240.868696 369.723462,243.752118 C368.197507,244.721512 366.742128,245.801367 365.004447,247.005015 C364.117486,242.658932 363.352601,238.907055 362.467547,234.56859 C402.331211,221.70746 442.213949,208.840617 482.095733,195.974726 C482.361822,196.532746 482.629817,197.090766 482.896859,197.648787" id="Fill-113" stroke="#BDC0C2"></path>
                        <path d="M289.280467,277.204957 C289.058946,272.515424 288.394963,257.644648 288.738824,254.754169 C289.079337,251.891821 291.063998,251.016449 293.080567,250.516638 C295.181616,249.995756 297.364685,249.792926 299.518189,249.493918 C308.31818,248.275034 317.089559,246.598117 325.934375,245.992484 C336.219311,245.287817 346.883828,241.758767 356.655662,248.421681 C357.03715,248.681646 357.806804,248.374069 358.740497,248.306459 C357.964168,244.289855 357.237432,240.531313 356.327581,235.829087 C349.723058,236.907037 343.314047,238.061168 336.87261,238.983901 C320.824334,241.280736 304.760797,243.461395 288.707752,245.721092 C286.475089,246.034383 285.076933,246.965686 285.236205,249.707223 C285.727371,258.198463 287.006675,280.73587 287.006675,280.73587 L287.016803,280.726735 C287.331591,284.043058 292.064499,333.864122 294.842472,360.711171 C297.474744,360.179814 298.917725,359.888424 300.591507,359.550374 C295.236268,332.716464 289.504349,279.300293 289.280467,277.204957 Z" id="Combined-Shape" stroke="#BDC0C2"></path>
                        <path d="M451.29462,285.779616 C453.123858,284.808318 454.763306,283.938911 456.993108,282.75526 C470.932706,302.570694 484.920943,322.45469 498.912042,342.343447 C492.897872,346.475273 492.98943,346.412425 489.425371,341.210266 C476.807632,322.788931 464.122178,304.415208 451.29462,285.779616" id="Fill-125" stroke="#BDC0C2"></path>
                        <path d="M369.213984,315.098154 C369.234012,310.098826 372.957342,306.850691 378.262897,306.564063 C384.02433,306.252676 387.496831,310.042643 387.953664,315.592374 C388.324661,320.088913 383.142137,324.693056 378.349685,324.717815 C372.77995,324.746382 369.192049,320.96689 369.213984,315.098154" id="Fill-137" stroke="#BDC0C2"></path>
                        <path d="M427.281145,251.120938 C434.533246,246.486322 433.990578,245.903543 437.976181,252.600739 C442.881172,260.844394 448.06465,268.922356 453.324426,277.387886 C451.320657,278.400131 449.466621,279.3381 447.545826,280.309398 C440.703826,270.455484 434.10121,260.94438 427.281145,251.120938" id="Fill-139" stroke="#BDC0C2"></path>
                        <path d="M445.256512,379.643009 C444.567925,377.558527 444.139704,376.256797 443.607527,374.643681 C454.246294,370.063343 464.878384,365.490624 475.507614,360.906478 C479.484634,359.19147 483.559887,357.657391 487.385265,355.652898 C489.956499,354.304508 491.299339,354.734926 492.678421,358.522036 C476.911492,365.54395 461.175083,372.552533 445.256512,379.643009" id="Fill-143" stroke="#BDC0C2"></path>
                        <path d="M437.35569,376.959274 C437.97847,378.3648 438.469637,379.473222 439.29556,381.335829 C427.112718,385.338149 415.184519,389.25667 403.208635,393.190428 C400.736588,389.629953 400.934962,387.674978 405.774146,386.398007 C416.222169,383.641234 426.500428,380.246452 437.35569,376.959274" id="Fill-145" stroke="#BDC0C2"></path>
                        <path d="M360.060448,402.108849 C359.290795,398.671215 360.103366,397.593265 363.060857,396.952398 C373.335302,394.726983 383.505791,392.026393 394.487898,389.316281 C394.931379,390.93035 396.089197,392.832952 395.607567,394.12992 C395.219402,395.179303 392.912349,395.772557 391.357783,396.095371 C382.858214,397.8618 374.330034,399.492057 365.806622,401.147073 C364.005995,401.49655 362.186294,401.755563 360.060448,402.108849" id="Fill-147" stroke="#BDC0C2"></path>
                        <path d="M414.607994,231.419298 C418.580246,230.252788 421.639785,229.354814 424.902467,228.396847 C427.689243,233.933246 430.398766,239.316333 433.342905,245.166023 C431.03013,246.662965 428.756457,248.134196 426.144213,249.825398 C422.279733,243.659559 418.572616,237.746068 414.607994,231.419298" id="Fill-149" stroke="#BDC0C2"></path>
                        <path d="M353.809184,403.740439 C349.074909,404.732687 344.143213,405.789688 339.20198,406.796219 C331.597003,408.345535 323.949108,409.708209 316.393724,411.45845 C312.884027,412.271674 312.666579,410.722358 313.132949,407.908451 C324.87231,405.275471 336.650775,402.532982 348.487416,400.070456 C350.598956,399.630515 354.141079,398.215467 353.809184,403.740439" id="Fill-151" stroke="#BDC0C2"></path>
                        <path d="M496.330985,351.553925 C498.679048,350.631191 500.696169,349.837965 502.713291,349.044738 C502.867794,350.139829 503.530631,351.859598 503.086196,352.220502 C501.312274,353.662213 499.215993,355.780024 496.330985,351.553925" id="Fill-167" stroke="#BDC0C2"></path>
                    </g>
                </g>
                <polygon id="Line" fill="#584098" mask="url(#mask-3)" transform="translate(142.854070, 100.331253) rotate(-197.000000) translate(-142.854070, -100.331253) " points="126.719892 132.006899 158.397321 132.006899 158.397321 100.137154 152.117141 100.137154 152.117141 84.8428024 165.241095 84.8428024 165.241095 68.6556067 120.467044 68.6556067 120.467044 84.6296549 135.398421 84.6296549 135.398421 96.4380138 149.282741 96.4380138 149.282741 99.9083467 126.463851 99.9083467"></polygon>
                <text id="1" mask="url(#mask-3)" font-family="Montserrat-Medium, Montserrat" font-size="10" font-weight="400" fill="#FFFFFF">
                    <tspan x="145.076923" y="124.463221">1</tspan>
                </text>
                <text id="3" mask="url(#mask-3)" font-family="Montserrat-Medium, Montserrat" font-size="10" font-weight="400" fill="#8D8D8D">
                    <tspan x="143.307692" y="239.385686">3</tspan>
                </text>
                <path d="M28.6862148,316.184388 C24.0643637,314.477369 20.7692308,310.033087 20.7692308,304.819404 C20.7692308,299.60572 24.0643637,295.161438 28.6862148,293.454419 L28.6862148,291.26839 L36.7231531,291.26839 L36.7231531,293.327957 C41.5328774,294.93293 45,299.471386 45,304.819404 C45,310.167421 41.5328774,314.705877 36.7231531,316.31085 L36.7231531,318.250497 L28.6862148,318.250497 L28.6862148,316.184388 Z" id="Combined-Shape" stroke="#BDC0C2" mask="url(#mask-3)"></path>
                <text id="4" mask="url(#mask-3)" font-family="Montserrat-Medium, Montserrat" font-size="10" font-weight="400" fill="#8D8D8D">
                    <tspan x="146.846154" y="144.526839">4</tspan>
                </text>
                <text id="5" mask="url(#mask-3)" font-family="Montserrat-Medium, Montserrat" font-size="10" font-weight="400" fill="#8D8D8D">
                    <tspan x="125.307692" y="50.5864811">5</tspan>
                </text>
                <text id="2" mask="url(#mask-3)" font-family="Montserrat-Medium, Montserrat" font-size="10" font-weight="400" fill="#FFFFFF">
                    <tspan x="135.384615" y="89.1789264">2</tspan>
                </text>
                <text id="6" mask="url(#mask-3)" font-family="Montserrat-Medium, Montserrat" font-size="10" font-weight="400" fill="#8D8D8D">
                    <tspan x="29.922968" y="307.945407">6</tspan>
                </text>
            </g>
        </g>
    </g>
</svg>