<?xml version="1.0" encoding="UTF-8"?>
<svg width="31px" height="32px" viewBox="0 0 31 32" version="1.1" xmlns="http://www.w3.org/2000/svg" xmlns:xlink="http://www.w3.org/1999/xlink">
    <!-- Generator: Sketch 42 (36781) - http://www.bohemiancoding.com/sketch -->
    <title>flickr</title>
    <desc>Created with Sketch.</desc>
    <defs></defs>
    <g id="12maio" stroke="none" stroke-width="1" fill="none" fill-rule="evenodd">
        <g id="landingpage-copy-2" transform="translate(-1026.000000, -6891.000000)">
            <g id="flickr" transform="translate(1026.500000, 6892.000000)">
                <polygon id="Fill-1" stroke="#FFFFFF" points="0 30 30 30 30 0 0 0"></polygon>
                <g id="Group-6" transform="translate(7.200000, 10.800000)" fill="#FFFFFF">
                    <path d="M8.0422,4.17364 C8.0422,6.34924 6.2778,8.11484 4.1022,8.11484 C1.925,8.11484 0.1598,6.34924 0.1598,4.17364 C0.1598,1.99724 1.925,0.23244 4.1022,0.23244 C6.2778,0.23244 8.0422,1.99724 8.0422,4.17364" id="Fill-2"></path>
                    <path d="M17.34764,4.17364 C17.34764,6.34924 15.58364,8.11484 13.40684,8.11484 C11.23084,8.11484 9.46564,6.34924 9.46564,4.17364 C9.46564,1.99724 11.23084,0.23244 13.40684,0.23244 C15.58364,0.23244 17.34764,1.99724 17.34764,4.17364" id="Fill-4"></path>
                </g>
            </g>
        </g>
    </g>
</svg>