<?xml version="1.0" encoding="UTF-8"?>
<svg width="31px" height="32px" viewBox="0 0 31 32" version="1.1" xmlns="http://www.w3.org/2000/svg" xmlns:xlink="http://www.w3.org/1999/xlink">
    <!-- Generator: Sketch 42 (36781) - http://www.bohemiancoding.com/sketch -->
    <title>googleplus</title>
    <desc>Created with Sketch.</desc>
    <defs></defs>
    <g id="12maio" stroke="none" stroke-width="1" fill="none" fill-rule="evenodd">
        <g id="landingpage-copy-2" transform="translate(-975.000000, -6891.000000)">
            <g id="googleplus" transform="translate(975.750000, 6892.000000)">
                <polygon id="Fill-1" stroke="#FFFFFF" points="0 29.7477237 29.7477632 29.7477237 29.7477632 -3.94736844e-05 0 -3.94736844e-05"></polygon>
                <g id="Group-6" transform="translate(3.552632, 3.300355)" fill="#FFFFFF">
                    <path d="M7.86063158,9.73231579 C8.64102632,9.70310526 9.29076316,9.42244737 9.81023684,8.89113158 C10.0616842,8.51494737 10.2227368,8.12889474 10.2941842,7.73297368 C10.3368158,7.33626316 10.3593158,7.00428947 10.3593158,6.73310526 C10.3593158,5.56547368 10.0601053,4.38678947 9.46286842,3.20021053 C9.18181579,2.631 8.81313158,2.16678947 8.35602632,1.80994737 C7.88826316,1.47323684 7.35142105,1.29402632 6.74510526,1.27428947 C5.94181579,1.29402632 5.27471053,1.61731579 4.74181579,2.24494737 C4.293,2.90139474 4.07786842,3.63521053 4.09878947,4.44639474 C4.09878947,5.51810526 4.41102632,6.63205263 5.03865789,7.79139474 C5.343,8.33178947 5.73339474,8.79007895 6.21457895,9.16665789 C6.69457895,9.54402632 7.24326316,9.73231579 7.86063158,9.73231579 L7.86063158,9.73231579 Z M11.9915526,18.4177105 C11.9915526,17.6653421 11.7464211,17.0108684 11.2565526,16.4523158 C10.7370789,15.9225789 9.92589474,15.2720526 8.82221053,14.4999474 C8.63273684,14.4806053 8.41128947,14.4715263 8.15668421,14.4715263 C8.00589474,14.4529737 7.61865789,14.4715263 6.99615789,14.5287632 C6.38352632,14.616 5.7555,14.7553421 5.11365789,14.9483684 C4.96247368,15.0063947 4.75089474,15.0936316 4.47773684,15.2092895 C4.20378947,15.3340263 3.92589474,15.5128421 3.64207895,15.7437632 C3.36813158,15.9845526 3.13721053,16.2833684 2.94931579,16.6402105 C2.73102632,17.0163947 2.62405263,17.4695526 2.62405263,17.9992895 C2.62405263,19.0402105 3.09418421,19.8979737 4.03760526,20.5721842 C4.93484211,21.2467895 6.1605,21.5937632 7.71773684,21.6135 C9.11392105,21.5937632 10.1805,21.2854737 10.9155,20.6878421 C11.6331316,20.0992895 11.9915526,19.3433684 11.9915526,18.4177105 L11.9915526,18.4177105 Z M10.8476053,1.36152632 C11.0343158,1.47678947 11.2427368,1.64534211 11.4752368,1.86718421 C11.6982632,2.0985 11.9165526,2.38389474 12.1305,2.72021053 C12.3357632,3.03836842 12.5173421,3.41297368 12.6760263,3.84757895 C12.8062895,4.28060526 12.8710263,4.78705263 12.8710263,5.36534211 C12.8540526,6.42481579 12.6199737,7.27271053 12.1687895,7.90902632 C11.9485263,8.21731579 11.7148421,8.50152632 11.4677368,8.76205263 C11.1933947,9.021 10.9028684,9.28705263 10.5941842,9.55665789 C10.4173421,9.73942105 10.2543158,9.94665789 10.1047105,10.1783684 C9.92826316,10.4191579 9.83984211,10.6978421 9.83984211,11.016 C9.83984211,11.3262632 9.93023684,11.5804737 10.1114211,11.7825789 C10.2649737,11.9756053 10.4145789,12.1445526 10.5598421,12.2890263 L11.5652368,13.1124474 C12.1897105,13.6244211 12.7372105,14.1861316 13.2081316,14.8031053 C13.6514211,15.4299474 13.8823421,16.2486316 13.9020789,17.2595526 C13.9020789,18.696 13.2669474,19.9670526 11.9990526,21.0766579 C10.6857632,22.2237632 8.78786842,22.8154737 6.30852632,22.8541579 C4.233,22.8348158 2.68365789,22.3923158 1.65971053,21.5278421 C0.627868421,20.7190263 0.110368421,19.7527105 0.110368421,18.6277105 C0.110368421,18.0798158 0.277736842,17.4679737 0.615631579,16.7949474 C0.9405,16.1223158 1.53102632,15.5306053 2.38602632,15.021 C3.34484211,14.4738947 4.353,14.1071842 5.40971053,13.9244211 C6.45576316,13.7712632 7.32418421,13.6840263 8.01576316,13.6650789 C7.80181579,13.3836316 7.61155263,13.0836316 7.44418421,12.7638947 C7.24918421,12.4540263 7.15247368,12.0806053 7.15247368,11.6456053 C7.15247368,11.3842895 7.18918421,11.1648158 7.263,10.9911316 C7.32813158,10.8063947 7.38931579,10.6382368 7.44418421,10.4827105 C7.10826316,10.521 6.79010526,10.5403421 6.49286842,10.5403421 C4.91471053,10.521 3.71273684,10.0244211 2.88536842,9.05178947 C2.01892105,8.14507895 1.58589474,7.09034211 1.58589474,5.88639474 C1.58589474,4.43060526 2.19852632,3.11178947 3.42655263,1.926 C4.26813158,1.23284211 5.14365789,0.780868421 6.05155263,0.567315789 C6.95036842,0.384157895 7.79313158,0.292973684 8.57865789,0.292973684 L14.5040526,0.292973684 L12.6740526,1.36152632 L10.8476053,1.36152632 Z" id="Fill-2"></path>
                    <polygon id="Fill-4" points="22.5318158 3.52930263 19.4228684 3.52930263 19.4228684 0.419565789 17.9165526 0.419565789 17.9165526 3.52930263 14.808 3.52930263 14.808 5.03561842 17.9165526 5.03561842 17.9165526 8.14417105 19.4228684 8.14417105 19.4228684 5.03561842 22.5318158 5.03561842"></polygon>
                </g>
            </g>
        </g>
    </g>
</svg>