<?xml version="1.0" encoding="UTF-8"?>
<svg width="157px" height="73px" viewBox="0 0 157 73" version="1.1" xmlns="http://www.w3.org/2000/svg" xmlns:xlink="http://www.w3.org/1999/xlink">
    <!-- Generator: Sketch 42 (36781) - http://www.bohemiancoding.com/sketch -->
    <title>Group</title>
    <desc>Created with Sketch.</desc>
    <defs></defs>
    <g id="12maio" stroke="none" stroke-width="1" fill="none" fill-rule="evenodd">
        <g id="landingpage-copy-2" transform="translate(-268.000000, -684.000000)" fill-rule="nonzero">
            <g id="Group-7" transform="translate(267.000000, 684.000000)">
                <g id="esdlogo" transform="translate(0.779588, 0.405941)">
                    <g id="Layer_1">
                        <g id="Group">
                            <g transform="translate(84.135111, 0.000000)" id="Shape">
                                <path d="M7.7336314,10.0765539 C7.7336314,10.4170179 7.56366148,10.5021339 7.3087066,10.5021339 L0.934834565,10.5021339 C0.594894723,10.5021339 0.509909763,10.3319019 0.509909763,10.0765539 L0.509909763,0.628678532 C0.509909763,0.288214555 0.679879684,0.203098561 0.934834565,0.203098561 L7.22372164,0.203098561 C7.56366148,0.203098561 7.64864644,0.373330549 7.64864644,0.628678532 L7.64864644,1.82030245 C7.64864644,2.16076643 7.47867652,2.24588242 7.22372164,2.24588242 L3.31441346,2.24588242 L3.31441346,4.1184343 L6.96876676,4.1184343 C7.3087066,4.1184343 7.39369156,4.28866629 7.39369156,4.54401427 L7.39369156,5.65052219 C7.39369156,5.99098617 7.22372164,6.07610217 6.96876676,6.07610217 L3.31441346,6.07610217 L3.31441346,8.28911802 L7.39369156,8.28911802 C7.7336314,8.28911802 7.81861636,8.45935001 7.81861636,8.71469799 L7.81861636,10.0765539 L7.7336314,10.0765539 Z" fill="#FFFFFF"></path>
                                <path d="M9.00840581,8.28911802 C9.09339077,7.94865404 9.26336069,7.86353805 9.51831557,8.03377003 C9.94324037,8.20400202 11.2180148,8.71469799 12.2378343,8.71469799 C12.917714,8.71469799 13.4276238,8.45935001 13.4276238,7.69330606 C13.4276238,6.92726211 12.917714,6.67191413 12.0678644,6.33145015 C10.3681652,5.73563819 8.75345093,5.13982623 8.75345093,3.01192637 C8.75345093,0.969142509 10.5381351,0.0328665721 12.6627591,0.0328665721 C13.7675636,0.0328665721 14.7023982,0.288214555 15.2123079,0.458446543 C15.5522478,0.543562538 15.6372327,0.713794526 15.5522478,1.0542585 L15.2972929,2.24588242 C15.2123079,2.5863464 15.042338,2.5863464 14.7873831,2.50123041 C14.5324282,2.41611441 13.5975937,2.07565043 12.7477441,2.07565043 C12.0678644,2.07565043 11.4729697,2.33099842 11.4729697,3.01192637 C11.4729697,3.77797032 12.3228193,4.0333183 13.2576538,4.45889827 C14.5324282,4.96959424 16.0621575,5.5654062 16.0621575,7.60819006 C16.0621575,9.56585793 14.5324282,10.7574819 12.4078042,10.7574819 C11.0480449,10.7574819 9.94324037,10.5021339 9.17837573,10.1616699 C8.92342085,10.0765539 8.75345093,9.82120591 8.83843589,9.48074194 L9.00840581,8.28911802 Z" fill="#FFFFFF"></path>
                                <path d="M19.8014958,5.31005822 C19.8014958,8.03377003 21.0762702,8.62958199 22.6059995,8.62958199 C23.1159092,8.62958199 23.8807739,8.544466 24.1357288,8.544466 C24.4756686,8.544466 24.5606536,8.62958199 24.6456385,8.97004597 L24.7306235,10.0765539 C24.7306235,10.4170179 24.6456385,10.5872499 24.3056987,10.5872499 C23.710804,10.6723659 22.8609544,10.7574819 22.0960897,10.7574819 C19.376571,10.7574819 16.9969921,9.65097393 16.9969921,5.39517421 C16.9969921,1.30960649 19.6315259,0.0328665721 22.1810747,0.0328665721 C23.1159092,0.0328665721 23.8807739,0.203098561 24.3906837,0.373330549 C24.7306235,0.458446543 24.8156085,0.628678532 24.8156085,0.969142509 L24.5606536,1.99053444 C24.4756686,2.33099842 24.3056987,2.41611441 23.9657589,2.33099842 C23.540834,2.24588242 22.9459393,2.07565043 22.3510446,2.07565043 C20.9063003,1.99053444 19.8014958,2.75657839 19.8014958,5.31005822 Z" fill="#FFFFFF"></path>
                                <path d="M34.6738639,5.39517421 C34.6738639,8.11888603 33.9089992,10.7574819 30.084676,10.7574819 C26.2603528,10.7574819 25.5804731,8.11888603 25.5804731,5.39517421 C25.5804731,2.67146239 26.3453377,0.0328665721 30.169661,0.0328665721 C33.9089992,0.0328665721 34.6738639,2.67146239 34.6738639,5.39517421 Z M31.9543451,5.39517421 C31.9543451,3.60773833 31.6993903,2.16076643 30.169661,2.16076643 C28.5549467,2.16076643 28.2999918,3.60773833 28.2999918,5.39517421 C28.2999918,7.18261009 28.5549467,8.544466 30.169661,8.544466 C31.7843752,8.544466 31.9543451,7.18261009 31.9543451,5.39517421 Z" fill="#FFFFFF"></path>
                                <path d="M42.917405,10.0765539 C42.917405,10.4170179 42.7474351,10.5021339 42.4924802,10.5021339 L36.543533,10.5021339 C36.2035932,10.5021339 36.1186082,10.3319019 36.1186082,10.0765539 L36.1186082,0.628678532 C36.1186082,0.288214555 36.2885781,0.203098561 36.543533,0.203098561 L38.4132021,0.203098561 C38.753142,0.203098561 38.8381269,0.373330549 38.8381269,0.628678532 L38.8381269,8.37423401 L42.4074953,8.37423401 C42.7474351,8.37423401 42.8324201,8.544466 42.8324201,8.79981398 L42.917405,10.0765539 L42.917405,10.0765539 Z" fill="#FFFFFF"></path>
                                <path d="M50.4810665,10.5872499 C50.1411267,10.5872499 49.9711568,10.4170179 49.8861718,10.1616699 L49.2912771,8.20400202 L46.6567433,8.20400202 L46.0618486,10.1616699 C45.9768636,10.5021339 45.8068937,10.5872499 45.4669538,10.5872499 L43.5972847,10.5872499 C43.2573449,10.5872499 43.1723599,10.4170179 43.2573449,10.1616699 L46.4017884,0.713794526 C46.4867734,0.458446543 46.6567433,0.288214555 46.9966831,0.288214555 L48.9513372,0.288214555 C49.2912771,0.288214555 49.461247,0.458446543 49.546232,0.713794526 L52.6056905,10.1616699 C52.6906755,10.5021339 52.6056905,10.5872499 52.2657507,10.5872499 L50.4810665,10.5872499 L50.4810665,10.5872499 Z M47.9315177,3.09704237 L47.1666531,6.16121816 L48.6113974,6.16121816 L47.9315177,3.09704237 Z" fill="#FFFFFF"></path>
                                <path d="M0.254954881,23.780229 C0.339939842,23.439765 0.509909763,23.354649 0.764864644,23.524881 C1.18978945,23.695113 2.46456385,24.2058089 3.48438338,24.2058089 C4.16426306,24.2058089 4.67417283,23.950461 4.67417283,23.184417 C4.67417283,22.4183731 4.16426306,22.1630251 3.31441346,21.8225611 C1.61471425,21.2267491 0,20.6309372 0,18.5030373 C0,16.4602535 1.78468417,15.5239775 3.90930818,15.5239775 C5.01411267,15.5239775 5.94894723,15.7793255 6.458857,15.9495575 C6.79879684,16.0346735 6.8837818,16.2049055 6.79879684,16.5453695 L6.54384196,17.7369934 C6.458857,18.0774574 6.28888707,18.0774574 6.03393219,17.9923414 C5.77897731,17.9072254 4.84414275,17.5667614 3.99429314,17.5667614 C3.31441346,17.5667614 2.71951873,17.8221094 2.71951873,18.5030373 C2.71951873,19.2690813 3.56936834,19.5244293 4.5042029,19.9500092 C5.77897731,20.4607052 7.3087066,21.0565172 7.3087066,23.099301 C7.3087066,25.0569689 5.77897731,26.2485928 3.6543533,26.2485928 C2.29459393,26.2485928 1.18978945,25.9932448 0.424924802,25.6527809 C0.169969921,25.5676649 9.66167141e-14,25.3123169 0.0849849605,24.9718529 L0.254954881,23.780229 Z" fill="#FFFFFF"></path>
                                <path d="M12.6627591,26.2485928 C9.68828549,26.2485928 8.58348101,24.9718529 8.58348101,22.2481411 L8.58348101,16.2049055 C8.58348101,15.8644415 8.75345093,15.7793255 9.00840581,15.7793255 L10.8780749,15.7793255 C11.2180148,15.7793255 11.3029997,15.9495575 11.3029997,16.2049055 L11.3029997,22.1630251 C11.3029997,23.354649 11.3879847,24.120693 12.6627591,24.120693 C13.8525486,24.120693 13.9375335,23.439765 13.9375335,22.1630251 L13.9375335,16.2049055 C13.9375335,15.8644415 14.1075034,15.7793255 14.3624583,15.7793255 L16.2321274,15.7793255 C16.5720673,15.7793255 16.6570523,15.9495575 16.6570523,16.2049055 L16.6570523,22.2481411 C16.7420372,24.8867369 15.7222177,26.2485928 12.6627591,26.2485928 Z" fill="#FFFFFF"></path>
                                <path d="M18.5267214,16.3751375 C18.5267214,16.0346735 18.6966913,15.8644415 19.0366311,15.7793255 C19.5465409,15.6942095 20.8213153,15.5239775 22.0111048,15.5239775 C24.1357288,15.5239775 26.2603528,16.1197895 26.2603528,19.0988493 C26.2603528,21.4820971 24.6456385,22.5034891 22.6059995,22.5034891 C22.1810747,22.5034891 21.7561499,22.5034891 21.3312251,22.4183731 L21.3312251,25.5676649 C21.3312251,25.9081288 21.1612552,25.9932448 20.9063003,25.9932448 L19.0366311,25.9932448 C18.6966913,25.9932448 18.6117063,25.8230128 18.6117063,25.5676649 L18.5267214,16.3751375 L18.5267214,16.3751375 Z M21.3312251,20.6309372 L22.0111048,20.6309372 C22.8609544,20.6309372 23.540834,20.3755892 23.540834,19.1839653 C23.540834,17.8221094 22.7759694,17.5667614 22.0111048,17.5667614 C21.7561499,17.5667614 21.501195,17.5667614 21.3312251,17.6518774 L21.3312251,20.6309372 Z" fill="#FFFFFF"></path>
                                <path d="M34.6738639,25.5676649 C34.6738639,25.9081288 34.5038939,25.9932448 34.2489391,25.9932448 L27.875067,25.9932448 C27.5351272,25.9932448 27.4501422,25.8230128 27.4501422,25.5676649 L27.4501422,16.1197895 C27.4501422,15.7793255 27.6201122,15.6942095 27.875067,15.6942095 L34.1639541,15.6942095 C34.5038939,15.6942095 34.5888789,15.8644415 34.5888789,16.1197895 L34.5888789,17.3114134 C34.5888789,17.6518774 34.418909,17.7369934 34.1639541,17.7369934 L30.2546459,17.7369934 L30.2546459,19.6095453 L33.9089992,19.6095453 C34.2489391,19.6095453 34.333924,19.7797772 34.333924,20.0351252 L34.333924,21.1416332 C34.333924,21.4820971 34.1639541,21.5672131 33.9089992,21.5672131 L30.2546459,21.5672131 L30.2546459,23.780229 L34.333924,23.780229 C34.6738639,23.780229 34.7588488,23.950461 34.7588488,24.2058089 L34.6738639,25.5676649 L34.6738639,25.5676649 Z" fill="#FFFFFF"></path>
                                <path d="M36.2035932,16.3751375 C36.2035932,16.0346735 36.3735631,15.8644415 36.7135029,15.7793255 C37.2234127,15.6942095 38.4132021,15.5239775 39.6879765,15.5239775 C41.8126005,15.5239775 43.9372246,16.1197895 43.9372246,19.0137333 C43.9372246,20.7160532 43.1723599,21.7374451 42.0675554,22.2481411 L44.2771644,25.5676649 C44.4471343,25.8230128 44.3621494,25.9932448 44.1071945,25.9932448 L42.0675554,25.9932448 C41.7276156,25.9932448 41.5576457,25.9081288 41.3876757,25.5676649 L39.6029916,22.5034891 C39.4330217,22.5034891 39.3480367,22.5034891 39.1780668,22.4183731 L39.1780668,25.4825489 C39.1780668,25.8230128 39.0080969,25.9081288 38.753142,25.9081288 L36.8834728,25.9081288 C36.543533,25.9081288 36.458548,25.7378968 36.458548,25.4825489 L36.2035932,16.3751375 L36.2035932,16.3751375 Z M39.0080969,20.7160532 C39.2630517,20.7160532 39.5180066,20.8011692 39.6879765,20.8011692 C40.5378261,20.8011692 41.2177058,20.5458212 41.2177058,19.1839653 C41.2177058,17.8221094 40.4528412,17.5667614 39.6879765,17.5667614 L39.0080969,17.5667614 L39.0080969,20.7160532 Z" fill="#FFFFFF"></path>
                                <path d="M48.3564425,25.5676649 C48.3564425,25.9081288 48.1864726,25.9932448 47.9315177,25.9932448 L46.0618486,25.9932448 C45.7219087,25.9932448 45.6369238,25.8230128 45.6369238,25.5676649 L45.6369238,16.1197895 C45.6369238,15.7793255 45.8068937,15.6942095 46.0618486,15.6942095 L47.9315177,15.6942095 C48.2714575,15.6942095 48.3564425,15.8644415 48.3564425,16.1197895 L48.3564425,25.5676649 L48.3564425,25.5676649 Z" fill="#FFFFFF"></path>
                                <path d="M58.8945776,20.8862852 C58.8945776,23.609997 58.129713,26.2485928 54.3053897,26.2485928 C50.4810665,26.2485928 49.8011868,23.609997 49.8011868,20.8862852 C49.8011868,18.1625734 50.5660515,15.5239775 54.3903747,15.5239775 C58.129713,15.5239775 58.8945776,18.1625734 58.8945776,20.8862852 Z M56.1750589,20.8862852 C56.1750589,19.0988493 55.920104,17.6518774 54.3903747,17.6518774 C52.7756604,17.6518774 52.5207056,19.0988493 52.5207056,20.8862852 C52.5207056,22.6737211 52.7756604,24.035577 54.3903747,24.035577 C56.0050889,24.035577 56.1750589,22.6737211 56.1750589,20.8862852 Z" fill="#FFFFFF"></path>
                                <path d="M60.3393219,16.3751375 C60.3393219,16.0346735 60.5092919,15.8644415 60.8492317,15.7793255 C61.3591415,15.6942095 62.5489309,15.5239775 63.8237053,15.5239775 C65.9483293,15.5239775 68.0729533,16.1197895 68.0729533,19.0137333 C68.0729533,20.7160532 67.3080887,21.7374451 66.2032842,22.2481411 L68.4128932,25.5676649 C68.5828631,25.8230128 68.4978781,25.9932448 68.2429233,25.9932448 L66.2032842,25.9932448 C65.8633444,25.9932448 65.6933744,25.9081288 65.5234045,25.5676649 L63.7387203,22.5034891 C63.5687504,22.5034891 63.4837655,22.5034891 63.3137955,22.4183731 L63.3137955,25.4825489 C63.3137955,25.8230128 63.1438256,25.9081288 62.8888707,25.9081288 L61.0192016,25.9081288 C60.6792618,25.9081288 60.5942768,25.7378968 60.5942768,25.4825489 L60.3393219,16.3751375 L60.3393219,16.3751375 Z M63.1438256,20.7160532 C63.3987805,20.7160532 63.6537354,20.8011692 63.8237053,20.8011692 C64.6735549,20.8011692 65.3534346,20.5458212 65.3534346,19.1839653 C65.3534346,17.8221094 64.58857,17.5667614 63.8237053,17.5667614 L63.1438256,17.5667614 L63.1438256,20.7160532 Z" fill="#FFFFFF"></path>
                                <path d="M3.99429314,41.6545878 C2.46456385,41.6545878 1.69969921,41.5694718 0.849849605,41.3992398 C0.594894723,41.3141238 0.424924802,41.2290078 0.424924802,40.8885438 L0.424924802,31.8662484 C0.424924802,31.5257845 0.594894723,31.3555525 0.934834565,31.3555525 C1.78468417,31.2704365 2.97447362,31.1002045 4.0792781,31.1002045 C6.71381188,31.1002045 8.92342085,32.0364804 8.92342085,36.4625121 C8.92342085,40.8034278 6.37387203,41.6545878 3.99429314,41.6545878 Z M3.2294285,39.4415719 L3.82432322,39.4415719 C5.69399235,39.4415719 6.11891715,38.335064 6.11891715,36.3773961 C6.11891715,34.5048443 5.77897731,33.1429883 3.99429314,33.1429883 C3.73933826,33.1429883 3.48438338,33.1429883 3.14444354,33.2281043 L3.14444354,39.4415719 L3.2294285,39.4415719 Z" fill="#FFFFFF"></path>
                                <path d="M17.6768718,41.0587758 C17.6768718,41.3992398 17.5069019,41.4843558 17.251947,41.4843558 L10.8780749,41.4843558 C10.5381351,41.4843558 10.4531501,41.3141238 10.4531501,41.0587758 L10.4531501,31.6109005 C10.4531501,31.2704365 10.6231201,31.1853205 10.8780749,31.1853205 L17.166962,31.1853205 C17.5069019,31.1853205 17.5918868,31.3555525 17.5918868,31.6109005 L17.5918868,32.8025244 C17.5918868,33.1429883 17.4219169,33.2281043 17.166962,33.2281043 L13.2576538,33.2281043 L13.2576538,35.1006562 L16.9120071,35.1006562 C17.251947,35.1006562 17.3369319,35.2708882 17.3369319,35.5262362 L17.3369319,36.6327441 C17.3369319,36.9732081 17.166962,37.0583241 16.9120071,37.0583241 L13.2576538,37.0583241 L13.2576538,39.2713399 L17.3369319,39.2713399 C17.6768718,39.2713399 17.7618567,39.4415719 17.7618567,39.6969199 L17.6768718,41.0587758 L17.6768718,41.0587758 Z" fill="#FFFFFF"></path>
                                <path d="M25.5804731,41.6545878 C24.0507438,41.6545878 23.2858792,41.5694718 22.4360296,41.3992398 C22.1810747,41.3141238 22.0111048,41.2290078 22.0111048,40.8885438 L22.0111048,31.8662484 C22.0111048,31.5257845 22.1810747,31.3555525 22.5210145,31.3555525 C23.3708641,31.2704365 24.5606536,31.1002045 25.6654581,31.1002045 C28.2999918,31.1002045 30.5096008,32.0364804 30.5096008,36.4625121 C30.5945858,40.8034278 28.045037,41.6545878 25.5804731,41.6545878 Z M24.9005934,39.4415719 L25.4954881,39.4415719 C27.3651573,39.4415719 27.7900821,38.335064 27.7900821,36.3773961 C27.7900821,34.5048443 27.4501422,33.1429883 25.6654581,33.1429883 C25.4105032,33.1429883 25.1555483,33.1429883 24.8156085,33.2281043 L24.8156085,39.4415719 L24.9005934,39.4415719 Z" fill="#FFFFFF"></path>
                                <path d="M39.3480367,41.0587758 C39.3480367,41.3992398 39.1780668,41.4843558 38.9231119,41.4843558 L32.5492399,41.4843558 C32.2093,41.4843558 32.1243151,41.3141238 32.1243151,41.0587758 L32.1243151,31.6109005 C32.1243151,31.2704365 32.294285,31.1853205 32.5492399,31.1853205 L38.8381269,31.1853205 C39.1780668,31.1853205 39.2630517,31.3555525 39.2630517,31.6109005 L39.2630517,32.8025244 C39.2630517,33.1429883 39.0930818,33.2281043 38.8381269,33.2281043 L34.9288188,33.2281043 L34.9288188,35.1006562 L38.5831721,35.1006562 C38.9231119,35.1006562 39.0080969,35.2708882 39.0080969,35.5262362 L39.0080969,36.6327441 C39.0080969,36.9732081 38.8381269,37.0583241 38.5831721,37.0583241 L34.9288188,37.0583241 L34.9288188,39.2713399 L39.0080969,39.2713399 C39.3480367,39.2713399 39.4330217,39.4415719 39.4330217,39.6969199 L39.4330217,41.0587758 L39.3480367,41.0587758 Z" fill="#FFFFFF"></path>
                                <path d="M40.6228111,39.2713399 C40.7077961,38.930876 40.877766,38.84576 41.1327209,39.015992 C41.5576457,39.1862239 42.8324201,39.6969199 43.8522396,39.6969199 C44.5321193,39.6969199 45.042029,39.4415719 45.042029,38.675528 C45.042029,37.909484 44.5321193,37.654136 43.6822697,37.3136721 C41.9825705,36.7178601 40.3678562,36.1220481 40.3678562,33.9941483 C40.3678562,31.9513644 42.1525404,31.0150885 44.2771644,31.0150885 C45.3819689,31.0150885 46.3168035,31.2704365 46.8267132,31.4406685 C47.1666531,31.5257845 47.251638,31.6960164 47.1666531,32.0364804 L46.9116982,33.2281043 C46.8267132,33.5685683 46.6567433,33.5685683 46.4017884,33.4834523 C46.1468335,33.3983363 45.211999,33.0578724 44.3621494,33.0578724 C43.6822697,33.0578724 43.087375,33.3132203 43.087375,33.9941483 C43.087375,34.7601922 43.9372246,35.0155402 44.8720591,35.4411202 C46.1468335,35.9518162 47.6765628,36.5476281 47.6765628,38.590412 C47.6765628,40.5480799 46.1468335,41.7397038 44.0222095,41.7397038 C42.6624502,41.7397038 41.5576457,41.4843558 40.792781,41.1438918 C40.5378261,41.0587758 40.3678562,40.8034278 40.4528412,40.4629639 L40.6228111,39.2713399 Z" fill="#FFFFFF"></path>
                                <path d="M51.670856,41.0587758 C51.670856,41.3992398 51.500886,41.4843558 51.2459312,41.4843558 L49.376262,41.4843558 C49.0363222,41.4843558 48.9513372,41.3141238 48.9513372,41.0587758 L48.9513372,31.6109005 C48.9513372,31.2704365 49.1213071,31.1853205 49.376262,31.1853205 L51.2459312,31.1853205 C51.585871,31.1853205 51.670856,31.3555525 51.670856,31.6109005 L51.670856,41.0587758 Z" fill="#FFFFFF"></path>
                                <path d="M58.2996829,31.0150885 C59.2345174,31.0150885 60.084367,31.1853205 60.6792618,31.3555525 C61.0192016,31.4406685 61.1041866,31.6109005 61.0192016,31.9513644 L60.7642467,32.9727564 C60.6792618,33.3132203 60.5092919,33.3983363 60.169352,33.3132203 C59.7444272,33.2281043 58.9795626,33.0578724 58.3846678,33.0578724 C56.9399235,33.0578724 55.835119,33.7388003 55.835119,36.2922801 C55.835119,38.930876 56.7699536,39.6118039 58.2146979,39.6118039 C58.3846678,39.6118039 58.6396227,39.6118039 58.8095926,39.5266879 L58.8095926,36.7178601 C58.8095926,36.3773961 58.9795626,36.2922801 59.2345174,36.2922801 L60.8492317,36.2922801 C61.1891715,36.2922801 61.2741565,36.4625121 61.2741565,36.7178601 L61.2741565,40.6331958 C61.2741565,40.9736598 61.1891715,41.1438918 60.8492317,41.2290078 C59.9143971,41.4843558 58.9795626,41.6545878 57.7897731,41.6545878 C55.1552393,41.6545878 52.8606454,40.5480799 52.8606454,36.2922801 C53.2005853,32.2918284 55.7501341,31.0150885 58.2996829,31.0150885 Z" fill="#FFFFFF"></path>
                                <path d="M69.9426225,41.5694718 C69.6026826,41.5694718 69.4327127,41.4843558 69.2627428,41.1438918 L65.7783594,35.4411202 L65.7783594,41.1438918 C65.7783594,41.4843558 65.6083895,41.5694718 65.3534346,41.5694718 L63.6537354,41.5694718 C63.3137955,41.5694718 63.2288106,41.3992398 63.2288106,41.1438918 L63.2288106,31.6960164 C63.2288106,31.3555525 63.3987805,31.2704365 63.6537354,31.2704365 L65.5234045,31.2704365 C65.8633444,31.2704365 66.0333143,31.3555525 66.2032842,31.6960164 L69.6876676,37.3987881 L69.6876676,31.7811324 C69.6876676,31.4406685 69.8576375,31.3555525 70.1125924,31.3555525 L71.8972766,31.3555525 C72.2372164,31.3555525 72.3222014,31.5257845 72.3222014,31.7811324 L72.3222014,41.2290078 C72.3222014,41.5694718 72.1522314,41.6545878 71.8972766,41.6545878 L69.9426225,41.6545878 L69.9426225,41.5694718 Z" fill="#FFFFFF"></path>
                                <path d="M3.2294285,56.5498868 C3.2294285,56.8903508 3.05945858,56.9754667 2.8045037,56.9754667 L0.934834565,56.9754667 C0.594894723,56.9754667 0.509909763,56.8052348 0.509909763,56.5498868 L0.509909763,47.1020114 C0.509909763,46.7615474 0.679879684,46.6764314 0.934834565,46.6764314 L2.8045037,46.6764314 C3.14444354,46.6764314 3.2294285,46.8466634 3.2294285,47.1020114 L3.2294285,56.5498868 Z" fill="#EC008C"></path>
                                <path d="M5.01411267,47.4424754 C5.01411267,47.1020114 5.18408259,46.9317794 5.52402243,46.8466634 C6.03393219,46.7615474 7.3087066,46.5913154 8.49849605,46.5913154 C10.6231201,46.5913154 12.7477441,47.1871274 12.7477441,50.1661872 C12.7477441,52.549435 11.1330298,53.570827 9.09339077,53.570827 C8.66846597,53.570827 8.24354117,53.570827 7.81861636,53.485711 L7.81861636,56.6350028 C7.81861636,56.9754667 7.64864644,57.0605827 7.39369156,57.0605827 L5.52402243,57.0605827 C5.18408259,57.0605827 5.09909763,56.8903508 5.09909763,56.6350028 L5.09909763,47.4424754 L5.01411267,47.4424754 Z M7.81861636,51.6131591 L8.49849605,51.6131591 C9.34834565,51.6131591 10.0282253,51.3578111 10.0282253,50.1661872 C10.0282253,48.8043313 9.26336069,48.5489833 8.49849605,48.5489833 C8.24354117,48.5489833 7.98858628,48.5489833 7.81861636,48.6340993 L7.81861636,51.6131591 Z" fill="#EC008C"></path>
                                <path d="M16.4020974,51.7833911 C16.4020974,54.5071029 17.6768718,55.1029149 19.2066011,55.1029149 C19.7165108,55.1029149 20.4813755,55.0177989 20.7363304,55.0177989 C21.0762702,55.0177989 21.1612552,55.1029149 21.2462401,55.4433789 L21.3312251,56.5498868 C21.3312251,56.8903508 21.2462401,57.0605827 20.9063003,57.0605827 C20.3114056,57.1456987 19.4615559,57.2308147 18.6966913,57.2308147 C15.9771726,57.2308147 13.5975937,56.1243068 13.5975937,51.8685071 C13.5975937,47.7829394 16.2321274,46.5061995 18.7816763,46.5061995 C19.7165108,46.5061995 20.4813755,46.6764314 20.9912852,46.8466634 C21.3312251,46.9317794 21.41621,47.1020114 21.41621,47.4424754 L21.1612552,48.4638673 C21.0762702,48.8043313 20.9063003,48.8894473 20.5663604,48.8043313 C20.1414356,48.7192153 19.5465409,48.5489833 18.9516462,48.5489833 C17.5069019,48.5489833 16.4020974,49.3150273 16.4020974,51.7833911 Z" fill="#EC008C"></path>
                                <path d="M29.3198114,57.0605827 C28.9798715,57.0605827 28.8099016,56.8903508 28.7249166,56.6350028 L28.1300219,54.6773349 L25.4954881,54.6773349 L24.9005934,56.6350028 C24.8156085,56.9754667 24.6456385,57.0605827 24.3056987,57.0605827 L22.4360296,57.0605827 C22.0960897,57.0605827 22.0111048,56.8903508 22.0960897,56.6350028 L25.2405333,47.1871274 C25.3255182,46.9317794 25.4954881,46.7615474 25.835428,46.7615474 L27.7900821,46.7615474 C28.1300219,46.7615474 28.2999918,46.9317794 28.3849768,47.1871274 L31.4444354,56.6350028 C31.5294203,56.9754667 31.4444354,57.0605827 31.1044955,57.0605827 L29.3198114,57.0605827 L29.3198114,57.0605827 Z M26.7702625,49.6554912 L26.0053979,52.719667 L27.4501422,52.719667 L26.7702625,49.6554912 Z" fill="#EC008C"></path>
                            </g>
                            <g transform="translate(0.000000, 0.117983)" id="Shape">
                                <path d="M34.5888789,61.1983999 C49.2062921,61.1983999 61.0192016,49.6226247 61.0192016,35.3231376 C61.0192016,21.6194625 49.6312169,11.3204272 34.5888789,11.3204272 L19.5465409,11.3204272 L11.3879847,19.3213307 L34.2489391,19.3213307 C44.5321193,19.3213307 52.8606454,24.9389863 52.8606454,34.9826737 C52.8606454,45.026361 44.5321193,53.1974964 34.2489391,53.1974964 L28.4699618,53.1974964 L28.4699618,61.1983999 L34.5888789,61.1983999 L34.5888789,61.1983999 Z" fill="#EC008C"></path>
                                <path d="M34.2489391,0.0851159943 L11.3879847,0.0851159943 L19.5465409,8.08601946 L34.5888789,8.08601946 C51.500886,8.08601946 64.2486301,19.8320267 64.2486301,35.3231376 C64.2486301,51.3249446 50.9059913,64.4328077 34.5888789,64.4328077 L25.2405333,64.4328077 L25.2405333,53.1974964 L18.6117063,53.1974964 L18.6117063,72.4337111 L28.2150069,72.4337111 L28.2150069,72.4337111 L34.2489391,72.4337111 C55.3252093,72.4337111 72.4921713,55.6658603 72.4921713,34.9826737 C72.4921713,14.299487 55.3252093,0.0851159943 34.2489391,0.0851159943 Z" fill="#FFFFFF"></path>
                                <g transform="translate(0.000000, 52.771916)" fill="#FFFFFF">
                                    <polygon points="15.3822778 0.425579971 8.75345093 4.59626369 8.75345093 15.405995 15.3822778 19.6617947"></polygon>
                                    <polygon points="0.254954881 10.0436873 5.52402243 13.3632111 5.52402243 6.63904755"></polygon>
                                </g>
                            </g>
                        </g>
                    </g>
                </g>
            </g>
        </g>
    </g>
</svg>