<?xml version="1.0" encoding="UTF-8"?>
<svg width="222px" height="377px" viewBox="0 0 222 377" version="1.1" xmlns="http://www.w3.org/2000/svg" xmlns:xlink="http://www.w3.org/1999/xlink">
    <!-- Generator: Sketch 42 (36781) - http://www.bohemiancoding.com/sketch -->
    <title>Piso1</title>
    <desc>Created with Sketch.</desc>
    <defs></defs>
    <g id="12maio" stroke="none" stroke-width="1" fill="none" fill-rule="evenodd">
        <g id="landingpage-copy" transform="translate(-758.000000, -2089.000000)">
            <g id="Piso1" transform="translate(759.000000, 2089.000000)">
                <polygon id="Rectangle-19" fill="#6B3F9E" points="0.74829932 336.734694 72.7346916 336.734694 72.7346916 375.646259 0.74829932 375.646259"></polygon>
                <polygon id="Rectangle-19" fill="#6B3F9E" points="143.673469 336.734694 219.251701 336.734694 219.251701 375.646259 143.673469 375.646259"></polygon>
                <polygon id="Rectangle-19" fill="#6B3F9E" points="73.3333333 336.734694 143.673469 336.734694 143.673469 375.646259 73.3333333 375.646259"></polygon>
                <polygon id="Rectangle-19" fill="#6B3F9E" points="0.74829932 297.823129 71.8367347 297.823129 71.8367347 308.29932 60.4069725 308.29932 60.4069725 336.285641 0.74829932 336.285641"></polygon>
                <polygon id="Rectangle-19" fill="#6B3F9E" points="74.829932 242.44898 142.176871 242.44898 142.176871 296.326531 74.829932 296.326531"></polygon>
                <polygon id="Rectangle-19" fill="#6B3F9E" points="154.897959 298.571429 219.251701 298.571429 219.251701 336.734694 154.897959 336.734694"></polygon>
                <polyline id="Line" stroke="#FFFFFF" stroke-linecap="square" points="0.37414966 298.197279 0.37414966 0.553741497 219.579553 0.553741497 219.579553 299.35577"></polyline>
                <path d="M0.419562351,336.56281 L73.003849,336.547619" id="Stroke-9" stroke="#8D8D8D"></path>
                <polygon id="Rectangle-10" fill="#D8D8D8" points="60.445331 308.222963 71.7809771 308.222963 71.7809771 298.327086 74.54957 298.327086 74.54957 296.128002 142.244542 296.128002 142.244542 298.435574 154.410346 298.435574 154.410346 336.26128 60.445331 336.26128"></polygon>
                <polyline id="Line" stroke="#979797" stroke-linecap="square" points="143.5 298.5 143.5 322.520824 153.827969 322.520824"></polyline>
                <polyline id="Stroke-3" stroke="#8D8D8D" points="219.151261 336.346301 154.608307 336.346301 154.608307 298.183036"></polyline>
                <polyline id="Stroke-5" stroke="#8D8D8D" points="154.608726 336.56281 143.909886 336.56281 143.909886 375.644792"></polyline>
                <polyline id="Stroke-7" stroke="#8D8D8D" points="143.909886 336.56281 73.003849 336.56281 73.003849 375.855286"></polyline>
                <polygon id="Stroke-1" stroke="#8D8D8D" points="219.151261 298.182615 219.151261 375.644371 0.419981913 375.644371 0.419981913 298.182615 74.5423842 298.182615 74.5423842 286.414143 74.5423842 284.612764 74.5423842 281.638059 74.5423842 242.050626 142.511485 242.050626 142.511485 281.648076 142.511485 285.070337 142.511485 287.039692 142.511485 298.182615"></polygon>
                <path d="M74.5423842,296.147981 L142.511485,296.147981" id="Stroke-13" stroke="#8D8D8D"></path>
                <polyline id="Stroke-12" stroke="#8D8D8D" points="71.745162 298.182615 71.745162 308.005944 60.2071973 308.005944 60.2071973 336.562389"></polyline>
                <polygon id="Stroke-15" stroke="#8D8D8D" points="61.6756656 322.880454 70.2766938 322.880454 70.2766938 311.724277 61.6756656 311.724277"></polygon>
                <polygon id="Stroke-16" stroke="#8D8D8D" points="86.8494066 317.373091 131.323016 317.373091 131.323016 298.182783 86.8494066 298.182783"></polygon>
                <polyline id="Stroke-17" stroke="#8D8D8D" points="86.8494066 306.356935 101.114527 306.356935 101.114527 309.724837 101.114527 317.302618 101.114527 315.51342 117.267677 315.51342 117.267677 317.302618 117.267677 306.356935 131.323016 306.356935"></polyline>
                <path d="M117.267677,309.830084 L101.114527,309.830084" id="Stroke-18" stroke="#8D8D8D"></path>
                <path d="M119.470379,306.356935 L119.470379,298.183036" id="Stroke-19" stroke="#8D8D8D"></path>
                <path d="M123.718448,306.356935 L123.718448,298.183036" id="Stroke-20" stroke="#8D8D8D"></path>
                <path d="M127.966517,306.356935 L127.966517,298.183036" id="Stroke-21" stroke="#8D8D8D"></path>
                <path d="M98.5971525,306.356935 L98.5971525,298.183036" id="Stroke-22" stroke="#8D8D8D"></path>
                <path d="M94.4539742,306.356935 L94.4539742,298.183036" id="Stroke-23" stroke="#8D8D8D"></path>
                <path d="M90.310796,306.356935 L90.310796,298.183036" id="Stroke-24" stroke="#8D8D8D"></path>
                <text id="wc" transform="translate(150.000000, 309.500000) rotate(-90.000000) translate(-150.000000, -309.500000) " font-family="Montserrat-Medium, Montserrat" font-size="10" font-weight="400" letter-spacing="1.25" fill="#8D8D8D">
                    <tspan x="141.34375" y="313">w</tspan>
                    <tspan x="151.45375" y="313" letter-spacing="1.5625">c</tspan>
                </text>
            </g>
        </g>
    </g>
</svg>