<?xml version="1.0" encoding="UTF-8"?>
<svg width="32px" height="32px" viewBox="0 0 32 32" version="1.1" xmlns="http://www.w3.org/2000/svg" xmlns:xlink="http://www.w3.org/1999/xlink">
    <!-- Generator: Sketch 42 (36781) - http://www.bohemiancoding.com/sketch -->
    <title>soundcloud</title>
    <desc>Created with Sketch.</desc>
    <defs></defs>
    <g id="12maio" stroke="none" stroke-width="1" fill="none" fill-rule="evenodd">
        <g id="landingpage-copy-2" transform="translate(-1127.000000, -6891.000000)">
            <g id="soundcloud" transform="translate(1128.000000, 6892.000000)">
                <polygon id="Fill-1" stroke="#FFFFFF" points="0 30 30 30 30 0 0 0"></polygon>
                <g id="Group-30" transform="translate(4.400000, 11.000000)" fill="#FFFFFF">
                    <path d="M1.27148,8.58712 C1.31708,8.58712 1.35588,8.54952 1.36268,8.49672 L1.61108,6.52752 L1.36308,4.51352 C1.35588,4.46072 1.31708,4.42272 1.27148,4.42272 C1.22468,4.42272 1.18468,4.46152 1.17868,4.51352 L0.96148,6.52752 L1.17868,8.49592 C1.18468,8.54872 1.22468,8.58712 1.27148,8.58712" id="Fill-2"></path>
                    <path d="M0.45236,7.83828 C0.49716,7.83828 0.53356,7.80348 0.54036,7.75108 L0.73276,6.52748 L0.54036,5.28108 C0.53356,5.23028 0.49716,5.19388 0.45236,5.19388 C0.40556,5.19388 0.36916,5.23028 0.36236,5.28188 L0.20156,6.52748 L0.36236,7.75068 C0.36916,7.80268 0.40556,7.83828 0.45236,7.83828" id="Fill-4"></path>
                    <path d="M2.25116,4.13888 C2.24516,4.07488 2.19836,4.02808 2.14036,4.02808 C2.08236,4.02808 2.03556,4.07488 2.02996,4.13888 L1.82276,6.52768 L2.02996,8.82928 C2.03556,8.89288 2.08236,8.93888 2.14036,8.93888 C2.19836,8.93888 2.24516,8.89288 2.25116,8.82928 L2.48596,6.52768 L2.25116,4.13888 Z" id="Fill-6"></path>
                    <path d="M3.01836,9.03164 C3.08636,9.03164 3.14156,8.97564 3.14796,8.90244 L3.36996,6.52844 L3.14796,4.07284 C3.14156,3.99924 3.08636,3.94364 3.01836,3.94364 C2.94916,3.94364 2.89356,3.99924 2.88876,4.07324 L2.69276,6.52844 L2.88876,8.90244 C2.89356,8.97564 2.94916,9.03164 3.01836,9.03164" id="Fill-8"></path>
                    <path d="M3.90236,9.07012 C3.98156,9.07012 4.04516,9.00652 4.05196,8.92172 L4.05116,8.92212 L4.26036,6.52852 L4.05116,4.25012 C4.04516,4.16652 3.98156,4.10212 3.90236,4.10212 C3.82196,4.10212 3.75876,4.16652 3.75396,4.25092 L3.56916,6.52852 L3.75396,8.92172 C3.75876,9.00652 3.82196,9.07012 3.90236,9.07012" id="Fill-10"></path>
                    <path d="M5.1578,6.52892 L4.9618,2.82492 C4.9562,2.73092 4.883,2.65612 4.7934,2.65612 C4.7042,2.65612 4.6314,2.73092 4.6258,2.82492 L4.4522,6.52892 L4.6258,8.92212 C4.6314,9.01652 4.7042,9.09052 4.7934,9.09052 C4.883,9.09052 4.9562,9.01652 4.9618,8.92212 L4.9618,8.92292 L5.1578,6.52892 Z" id="Fill-12"></path>
                    <path d="M5.69336,9.09432 C5.79216,9.09432 5.87416,9.01232 5.87896,8.90752 L5.87896,8.90912 L6.06216,6.52952 L5.87896,1.97752 C5.87416,1.87272 5.79216,1.79072 5.69336,1.79072 C5.59216,1.79072 5.51096,1.87272 5.50536,1.97752 L5.34416,6.52952 L5.50616,8.90832 C5.51096,9.01232 5.59216,9.09432 5.69336,9.09432" id="Fill-14"></path>
                    <path d="M6.59844,1.3918 C6.48724,1.3918 6.39724,1.4834 6.39244,1.5986 L6.24244,6.5302 L6.39244,8.8842 C6.39724,8.999 6.48724,9.0898 6.59844,9.0898 C6.70924,9.0898 6.80004,8.9998 6.80404,8.8838 L6.80404,8.885 L6.97404,6.5302 L6.80404,1.5986 C6.80004,1.4826 6.70924,1.3918 6.59844,1.3918" id="Fill-16"></path>
                    <path d="M7.51132,9.09432 C7.63372,9.09432 7.73092,8.99552 7.73572,8.86872 L7.73572,8.86992 L7.89292,6.53032 L7.73572,1.43272 C7.73092,1.30632 7.63372,1.20712 7.51132,1.20712 C7.38812,1.20712 7.28932,1.30632 7.28732,1.43272 L7.14612,6.53032 L7.28732,8.86992 C7.28932,8.99552 7.38812,9.09432 7.51132,9.09432" id="Fill-18"></path>
                    <path d="M8.43164,9.092 C8.56364,9.092 8.67084,8.984 8.67444,8.8472 L8.67444,8.8492 L8.81964,6.5308 L8.67444,1.5628 C8.67084,1.426 8.56364,1.3184 8.43164,1.3184 C8.29884,1.3184 8.19164,1.426 8.18804,1.5628 L8.06044,6.5308 L8.18884,8.848 C8.19164,8.984 8.29884,9.092 8.43164,9.092" id="Fill-20"></path>
                    <path d="M9.75196,6.53068 L9.62076,1.74388 C9.61756,1.59628 9.50196,1.48028 9.35876,1.48028 C9.21476,1.48028 9.09916,1.59628 9.09596,1.74508 L8.97836,6.53068 L9.09596,8.83388 C9.09916,8.98068 9.21476,9.09668 9.35876,9.09668 C9.50196,9.09668 9.61756,8.98068 9.62076,8.83188 L9.62076,8.83388 L9.75196,6.53068 Z" id="Fill-22"></path>
                    <path d="M10.29256,9.1008 C10.44496,9.1008 10.57096,8.974 10.57336,8.818 L10.57336,8.8192 L10.69256,6.532 L10.57336,0.8356 C10.57096,0.6792 10.44496,0.5528 10.29256,0.5528 C10.14016,0.5528 10.01456,0.68 10.01136,0.8364 L9.90536,6.5296 L10.01136,8.8192 C10.01456,8.974 10.14016,9.1008 10.29256,9.1008" id="Fill-24"></path>
                    <path d="M11.22344,0.017 C11.05904,0.017 10.92544,0.1534 10.92264,0.3198 L10.79944,6.5326 L10.92344,8.7862 C10.92544,8.9506 11.05904,9.0866 11.22344,9.0866 C11.38544,9.0866 11.52144,8.9506 11.52224,8.7838 L11.52224,8.7862 L11.65664,6.5326 L11.52224,0.3198 C11.52144,0.153 11.38544,0.017 11.22344,0.017" id="Fill-26"></path>
                </g>
                <path d="M16.4746,20.10292 C16.4814,20.10332 23.9774,20.10692 24.0254,20.10692 C25.5306,20.10692 26.7498,18.87252 26.7498,17.34892 C26.7498,15.82652 25.5306,14.59172 24.0254,14.59172 C23.6518,14.59172 23.2962,14.66812 22.9714,14.80612 C22.7558,12.32012 20.6966,10.37092 18.1842,10.37092 C17.5702,10.37092 16.9714,10.49372 16.4426,10.70092 C16.2366,10.78132 16.1818,10.86412 16.1802,11.02492 L16.1802,19.77652 C16.1826,19.94572 16.3114,20.08612 16.4746,20.10292" id="Fill-28" fill="#FFFFFF"></path>
            </g>
        </g>
    </g>
</svg>