<?xml version="1.0" encoding="UTF-8"?>
<svg width="32px" height="32px" viewBox="0 0 32 32" version="1.1" xmlns="http://www.w3.org/2000/svg" xmlns:xlink="http://www.w3.org/1999/xlink">
    <!-- Generator: Sketch 42 (36781) - http://www.bohemiancoding.com/sketch -->
    <title>twitter</title>
    <desc>Created with Sketch.</desc>
    <defs></defs>
    <g id="12maio" stroke="none" stroke-width="1" fill="none" fill-rule="evenodd">
        <g id="landingpage-copy-2" transform="translate(-1076.000000, -6891.000000)">
            <g id="twitter" transform="translate(1077.250000, 6892.000000)">
                <polygon id="Fill-1" stroke="#FFFFFF" points="0 29.7480789 29.7477632 29.7480789 29.7477632 0.000315789473 0 0.000315789473"></polygon>
                <path d="M24.7891974,8.72352632 C24.0593289,9.04721053 23.2749868,9.26628947 22.4523553,9.36418421 C23.2923553,8.8605 23.9385395,8.06392105 24.2413026,7.11339474 C23.4561711,7.57957895 22.5857763,7.91865789 21.6585395,8.10102632 C20.9156447,7.30957895 19.8581447,6.81576316 18.6881447,6.81576316 C16.4413026,6.81576316 14.6191974,8.63786842 14.6191974,10.8847105 C14.6191974,11.2040526 14.6555132,11.5139211 14.7241974,11.8115526 C11.3432763,11.6426053 8.34564474,10.023 6.33840789,7.56023684 C5.98867105,8.16221053 5.78775,8.8605 5.78775,9.60615789 C5.78775,11.0173421 6.50577632,12.2635263 7.59722368,12.9926053 C6.93051316,12.9720789 6.30327632,12.7877368 5.75459211,12.4833947 L5.75459211,12.5347105 C5.75459211,14.5056316 7.15748684,16.1505 9.01788158,16.5243158 C8.67722368,16.6170789 8.31682895,16.6676053 7.94617105,16.6676053 C7.68446053,16.6676053 7.42867105,16.6415526 7.18077632,16.5937895 C7.69827632,18.2106316 9.20064474,19.3861579 10.9809079,19.4201053 C9.58946053,20.5111579 7.83525,21.1616842 5.92748684,21.1616842 C5.59985526,21.1616842 5.27617105,21.1415526 4.95801316,21.1048421 C6.75840789,22.2582632 8.89709211,22.9320789 11.1956447,22.9320789 C18.6790658,22.9320789 22.7713026,16.7335263 22.7713026,11.3560263 C22.7713026,11.1803684 22.7665658,11.0047105 22.7598553,10.8290526 C23.5532763,10.2562895 24.2424868,9.53984211 24.7891974,8.72352632" id="Fill-2" fill="#FFFFFF"></path>
            </g>
        </g>
    </g>
</svg>